<svg xmlns="http://www.w3.org/2000/svg" viewBox="0 0 841.89 595.28"><defs><style>.cls-1{fill:#95b2a1;}.cls-2,.cls-3,.cls-4,.cls-5,.cls-6{fill:none;stroke-miterlimit:10;}.cls-2{stroke:#ce6a63;stroke-width:20.25px;}.cls-2,.cls-4,.cls-6{stroke-linecap:round;}.cls-3{stroke:#ffe900;}.cls-3,.cls-4,.cls-5,.cls-6{stroke-width:16.57px;}.cls-4,.cls-5{stroke:#00a1b2;}.cls-6{stroke:#117db2;}</style></defs><title>gempy</title><g id="logo"><path class="cls-1" d="M451.08,328.49c.05-.19,0-.61-.12-.53l-.1.72Z"/><path class="cls-1" d="M450.14,327.16a2.88,2.88,0,0,0-.25,1.62c.16-.69.2-.4.38-1.23.14-.08.24.23.22.5,0-.18.22.16.29-.29-.18-.56-.41-.58-.65-.12A1.21,1.21,0,0,1,450.14,327.16Z"/><path class="cls-1" d="M436.51,326l.09.09A.16.16,0,0,0,436.51,326Z"/><path class="cls-1" d="M428.06,325.64a.16.16,0,0,0,.09-.15C428.09,325.53,428,325.58,428.06,325.64Z"/><path class="cls-1" d="M426.62,324.84l.08,0C426.67,324.83,426.64,324.79,426.62,324.84Z"/><path class="cls-1" d="M436.51,326l-.23-.23C436.26,326,436.4,326,436.51,326Z"/><path class="cls-1" d="M448.26,328.89a.45.45,0,0,0,.12-.19l-.12.08S448.26,328.85,448.26,328.89Z"/><path class="cls-1" d="M440.23,325.45h.07c0-.08,0-.18.06-.29Z"/><path class="cls-1" d="M443.09,325.34c-.06,0-.09.59-.11.85,0-.25.08-.37.14-.42A3.35,3.35,0,0,0,443.09,325.34Z"/><path class="cls-1" d="M447.62,326.41l.08-.08Z"/><path class="cls-1" d="M438.18,325.32a1.4,1.4,0,0,0,0-.22A1,1,0,0,0,438.18,325.32Z"/><path class="cls-1" d="M358.26,329.92s0-.07,0-.11S358.24,329.91,358.26,329.92Z"/><path class="cls-1" d="M354.95,326.88l0,0c0-.12,0-.23,0-.34Z"/><path class="cls-1" d="M424,324.06h0C424.06,324,424,324,424,324.06Z"/><path class="cls-1" d="M399.75,324.51c.27.55-.45.7,0,1.31C399.68,325.58,400.09,324.87,399.75,324.51Z"/><path class="cls-1" d="M448.18,328.81h-.12C448.12,328.84,448.16,328.84,448.18,328.81Z"/><path class="cls-1" d="M399.72,325.82h0l0,.06Z"/><path class="cls-1" d="M417.9,324.43a1.31,1.31,0,0,0,.06.27A.87.87,0,0,0,417.9,324.43Z"/><path class="cls-1" d="M422.43,325.3l-.11-.08A.2.2,0,0,0,422.43,325.3Z"/><path class="cls-1" d="M415.54,325.29c-.06,0-.08-.13-.16,0l0,.07C415.44,325.23,415.48,325.19,415.54,325.29Z"/><path class="cls-1" d="M413.1,325.3s0,.08,0,.12l.08,0Z"/><path class="cls-1" d="M365.7,329.62a3.5,3.5,0,0,1-.11-.55C365.63,329.51,365.27,329.66,365.7,329.62Z"/><path class="cls-1" d="M448.26,328.55c0,.15,0,.23-.07.26l.08,0A.68.68,0,0,0,448.26,328.55Z"/><path class="cls-1" d="M415.45,330.12l-.39-.09A.83.83,0,0,0,415.45,330.12Z"/><path class="cls-1" d="M383.26,329.53l-.09.07S383.24,329.6,383.26,329.53Z"/><path class="cls-1" d="M413.9,330.12a1.1,1.1,0,0,0-.22-.42.79.79,0,0,0,0,.16Z"/><path class="cls-1" d="M365.59,329.06h0Z"/><path class="cls-1" d="M363,330.52c.37,0,.17-.79.25-1.25.44-.23.2.59.36,1,.28-.21.49-1,.69-.92a.64.64,0,0,1,0,.35c.29-.64.87,0,1.21-.83a.86.86,0,0,1,0,.2,6.63,6.63,0,0,1-.05-1.1c.17,0,.31-.51.37,0-.1,0-.11.2-.16.36l.17-.23c.16.76-.24.26-.24.82.34-.25.74-.87,1-.66.05.74-.61.25-.26.91l-.4-.28c.31,1.17-.24-.08,0,1.17.53.21.59-.38,1.12-.16.12-.41,0-.61.08-1,.75-.74.59,1.86,1.14.87.14-.49.2-1.43.59-.93l-.13.84c.51.08.29-1.2.83-.64-.1.33-.4.28-.33.38.35.66.25-.47.51-.47l.06.74c.55-.12,1.15-.65,1.75-.79,0,.22-.14.45,0,.68.76-.37,1.63.09,2.36.53l.28-.64c.07,0,.12.29.05.41.29.24,0-.41.15-.66.16,0,.22.37.11.56.51-.54,1.44-1.17,2-.48l-.1.19c.42.26.47-1.31.85-.71l-.07.11c.9.28,1.9-.31,2.58.66.13-.92.89.41.95-.87.51.64.37.87,1.09,1.29.19.06.29-.8.53-.94v.67l.32-.7.17.8.22-.17a.63.63,0,0,1-.18-.49c.35-.3.85.47.86.81l.83-.57c0,.27-.16.36-.27.53.44-.68.08.71.49.08a1.49,1.49,0,0,1,0-.54.71.71,0,0,0,1,.24l-.07.46a13.2,13.2,0,0,0,2-.21c-.25-.22-.19-1,0-1.09l.08.71c.13-.44-.21-.27.06-.8.26.08.17.81,0,1l.31-.25a3.94,3.94,0,0,1-.07.59c.13-.44.54.71.73-.05l0,.21a13.36,13.36,0,0,0,1.56-.27c0-.61.23-.48.4-1,.41.2.87.68,1.37.62.35-.3.1-.52.26-.88,0,.56.52.51.26.91a3.09,3.09,0,0,0,1.52-.56c-.08-.23-.17-.33-.13-.52s.31.23.29.5l0,.06c.85-.84,2,1.63,2.63.46l0,.06.7-.61c.32.1-.19.42,0,.76.76-.93,1.19.13,1.82-.49.48,1.64,1.71-.12,2.36.93l0-.39c.17-.38.2.22.33.31,0-.3-.18-.35-.08-.56,1.42-.47,2.94.57,4.4.92.53.1.3-2,1-1.08l-.19.72c1.08-.86,2.2,0,3.26-.7-.06.17-.06.38-.17.38.22.52.82,0,.83-.4.16,0,0,.39.14.6s.56-.67.68-.15c0,.08-.06.17-.1.21.15-.25.68.06.54-.54.4.29.76-.27,1.07.09.21-.67.68.32.74-.63,0,1,.69.79.94.33-.08.3.22.31.12.72.29,0,.55-.2.5-.7.53,1.18,1.06-.95,1.35.56a9.92,9.92,0,0,1,2.4-1.12c0,1-.84.1-.81,1.13.72-.4,1.14-1.25,1.86-1,.19.13-.11.43-.17.59.72-.4,1.4.09,2-.45a.48.48,0,0,1-.14.27c.13,0,.29.14.28-.3l-.12.12c-.2-.65.5-1.35.53-1.7-.22,1.28.64.32.29,1.94a.8.8,0,0,0,.17-.59c.12.09.16.26,0,.6.45-.24.29-.72.7-.71a3.39,3.39,0,0,1-.13.55c.21-.42.42-.84.77-.66,0,.13,0,.3-.08.3.6-.07,1-1.12,1.67-.72-.19.94.22.31.26,1.12l.35-.24-.14-.39c.31,0,.58-.58.85-.31l-.23.33.58-.15-.33-.31c.31-.42,0-1,.38-.8-.08.08.31,0,.47.49h0c.15-.26.31-.53.54-.33.06.26,0,.9,0,1.07.15-.68.72-.19.91-.91a2,2,0,0,0,0,.68l.13-.55c.14.18.16.26.14.6.43.1-.14-1,.37-.59,0,0,0,.13-.1.21.51.23,1-.35,1.46-.08.14.82-.41.2-.25.89.68-.15,1.41-1,2.06-.79l-.12-.09c.09-1.15.49.57.82,0a1.21,1.21,0,0,0-.08.51c.45.19.92-.28,1.6-.65l-.08.3c.27.26.7.15,1,.29.08-.3.25-.25.15-.68.88,1.69,1.68-.91,2.47.5-.09,0-.22.26-.15.26l.67-.27c-.05-.5-.09-.3-.23-.7.08-.3.27-.53.44-.53-.3.33,0,.81.13,1.09,0-.15,0-.32,0-.48.35.9.06-1,.53-.41l0,.26c.18-.13.34-.48.53-.41.08.58-.19.27-.2.75.27,0,.53-1.1.78-.52-.11.16-.28.16-.39.33.27.68.3.51.49.62l0,0,.46.31-.12-.19c.34-1.52.69-.28,1.14-1.27-.44.94-.07.54-.11,1.2.12.18.29.39.24.57.21-.53.36.42.66-.36,0,.21.23,0,.18.55.28-.17-.07-.37,0-.64.43-.72,1,.88,1.63-.12.53-.41.63-1.13,1.13-1.48.17.34-.14.77-.14.77.27.31.47.26.73,0a1,1,0,0,0,.08.58c.2-.06.14-.77.41-.46a5.05,5.05,0,0,1-.2.85c.24-.2.48-.59.73-.78.07.37-.15.56-.24.8.28-.17.73-.34.81-.92l-.18-.21c.1,0,.05.5,0,.61-.24.46-.35-.2-.36-.42l.18-.14c-.18-1.24-.71.2-1.07.13l.15-.91-.37.75c-.08-.24-.13-.74,0-.88-.26-.45-.23.32-.45-.18a.17.17,0,0,1,0-.16l-.25.27c0-.19,0-.64.11-.51-.45-.52-.72.68-.89,0l0-.06c-.62.31-.06.66-.53,1.44l-.31-1.64-.06.66c-.06,0-.19-.07-.17-.34-.24.45,0,.29-.1.72-.31-.61-.85.28-.92-.78-.11.5.3.39,0,.74-.09-1.14-.38.2-.66-.33.09-.59.35-.28.07-.8-.17,1-.55-.22-.79,0,0,.79-.52.33-.92.59,0-.27-.75-.43-1.12-.72v-.13c-.07.8-.46.65-.74.81a1.37,1.37,0,0,1,.21-.88h-.26a.64.64,0,0,1-.31.48l.07-.6c-.35,0-.7.7-1.15.3,0,.56.36,1.55-.12,1.92,0-.3,0-.82.09-.94,0,0-.15.25-.23.12l.19-.51c-.2-.22-.11.42-.27.38,0-.43-.12-.31-.1-.65,0,0,.14.18.21,0a1,1,0,0,1-.48-.66c0,.24,0,.58-.14.63-.35,0-.12-.52-.32-.74-.08.3-.31,0-.31.63-.1,0-.12-.3-.16-.48-.18.28-.85.08-.64.76l0,0,0,0h0c-.59.64-1.23-.36-1.82-.09v-.22c-.35.25-.78.15-1,.61-.1,0-.25-.39-.2-.65-.27.16-.3.4-.69,0,.27-.38-.09-.33.28-.27-.35-.19-.43-.53-.8.06.13-.55-.26-.69-.43-.53l.24.39a.72.72,0,0,1-.52,0l.09-.72c-.71-.88-1.29,1.5-1.83,0-.19.51.39.36.22.95-.33-.1-.67-1.14-.77-1.14-.45-.4-.42,1.06-.89.78.06.26.12.95-.23,1.19-.33-.1-.4-1.08-.2-1.29.08,0,.12.06.11.15a.35.35,0,0,0,.12-.48l0,.26c-.16-.26-.62-.24-.51-.66-.25.25-.11.42.08.56-.42-.37-.66,0-1.09-.26.07.14.13.45.06.44-.64-.32-.28.49-.71.6-.25-.39.09-.94-.35-.61-.27-.27-.06-.69,0-.9-.4.5-.74-.33-1-.42l.21-.21a.39.39,0,0,1-.33.12l.12.52c-.12-.09-.23-.09-.22-.31-.13.34.1.86-.15,1.32-.16-.26-.5.28-.55-.4.51.23-.06-.69.38-.8-.08.08-.19.08-.31,0a.21.21,0,0,1,.05-.18c-.49-.61-.23.78-.73.76.06-.39-.12-.73-.2-.65.2,0,.1.64-.09.94-.33-.3-.35.22-.53.19l.2.14c-.07.39-.23.34-.46.46,0-.3.21-.21.13-.34-.25.68-.57-.7-.92-.25-.16-.26,0-.73-.16-.9-.39.5-.43-.53-.84-.12.12.52.14.39-.15.9l.68-.37-.44.76c.21,0,.43-.33.56-.24-.21.42-.19.29-.09.73-.28-.78-.56.45-.88-.07v-1.29c-.49-.57-.87.66-1.5.34l.2.22c-.09.51-.39.07-.6.28a1.82,1.82,0,0,0-.2-.85c0,.32-.47,0-.52.83l-.28-.57c-.51-.23-.59,1.22-1.08,1.08.15-.47-.08-.77.25-1.11-.16,0-.31-.08-.32.21-.1-.27-.46.58-.61.17-.07.19-.09.64-.28.6a.67.67,0,0,1,0-.21c0,.21-.29.29-.13.76-.51-1.34-1.42.1-1.86-1.05a4.53,4.53,0,0,1-1.12.31c0-.13,0-.21.06-.17-.45-.4-.28,1.23-.79.79-.26-.69.27-.38.11-.64-.07-1.41-.62.19-1-.63l.08-.08c-.26-.48-.64.54-1.07.43a.71.71,0,0,0,0-.21,2.18,2.18,0,0,1-1.27,1.16c.13-.55.19-.29.11-.86-.19.08.05.9-.32,1.06a2.81,2.81,0,0,1-.42-1.17l.35,0c-.18-.78-.45,0-.64-.11l0-.34c-.54.11-.54,1-1.12.9l.06.26c-.31.85-.26-.48-.58.15l-.1-.86a5.08,5.08,0,0,1-1.1,1,4.53,4.53,0,0,1,.92-1.34c-.21,0-.7.06-.81.49.08-.08.19-.29.27-.16-.25.68-.58,1-1,1,.07-1.67-1.07-.42-1.37-1.71-.73.62-1.44-.26-2.28-.16.3,1.3-.25,0-.19,1.37-.2.09-.27.06-.29,0l-.6-.8c-.14-.39.19-.29.17-.59-.43-.1-.18-.56-.47-.92.06.48-.15.68-.4.5l.35.61c-.6.71-.52-1.12-1.13-.42l.19-.42c-.31.25-1.15,0-1.45,1.06-.06-.15-.13-.52,0-.61-.74-.16-1.66,1.14-2.24.48l.06-.33c-.14.09-.24.61-.42.28,0-.13.06-.32,0-.34s-.37.57-.55.38l.16-.37c-.73-.43-1.11.89-1.72,1.12a1.45,1.45,0,0,0-.85-1.42v-.14c-.85-.12-1.44.79-2.22,1.17-.49-1-1.65-.44-2.43-1a1,1,0,0,1-.16.84c-.18-.19-.51.66-.48-.21l.07,0c-.14-.86-.51-.63-.81-.66l0,1.15c-.77-1.67-2,.61-2.44-.88-.19.29-.42.28-.6.57v-.62a2.18,2.18,0,0,0-1.41-.09l.13-.44c-.36,0-.45,1.78-.78,1.81l-.1-.92c-.63,0-1.26-.79-1.88,0,0-.13,0-.4.13-.44-.29,0-1.14-.62-1,.64,0-.82-.65-.08-1,.28l.05-.61c-.29.78-.29,1-.69,1.2-.09-.08-.08-.49,0-.33-.31-.32-.25.57-.63.25l.14-.39c-.32,0-.3.16-.48.61-.2.24-.61-.15-.66-.7,0,.33-.22.78-.41.62a.61.61,0,0,1,.08-.4c-.54-.41-.8.71-1.18.11a.9.9,0,0,0-.06-.36c.43,0,.78,0,.74.09,0-.56-.35-.66-.07-1.43-.28.42-.76,1.34-1.09,1.07a1.15,1.15,0,0,1,0-.19l0-.06c-.08-.06-.15,0-.21.09-.11-.09-.18-.16-.28-.17,0-.46-.4-.25-.57-.27,0,.61-.21.51,0,1,0,0,0-.07.15-.1s.06,0,.07-.06v.05l.43,0c-.14.31-.28.57-.47.23-.09.39-.19.8-.24,1-.24-.85-.69-1.31-.76-1.84-.53.34-1.25.23-1.58,1.38-.15.15-.17-.33-.23-.51s.19-.1.24-.26c-.3.29-.89.11-1,.92-.38-.36.21-.74-.31-.61l.07-.25c-1-1.28-1.66,2.05-2.8.4a.47.47,0,0,1,.13.28c-1.29-.73-2.67.68-3.94-.47-.36-.23-.4.28-.62.67l-.08-.66-.38.76c-.54.56-.93-1.61-1.61-.56l.09.44c-.24-.08-.77.26-.73-.25,0,.08-.08.46-.18.23v-.34l-.6.59c-.47-.25.07-1.37-.61-1.43-.25.13-.72,1-.62,1.23.1,0,.26.21.27.56l-.23.18c0,1-.22,2.05.35,2.76l.39-.62.13.49-.33,0c.19.46.31.05.44-.23a1.13,1.13,0,0,0,.17.54l.39-1c0,.4-.17.79.09,1,.18-.45-.17-.89.13-1.18.19.46.13.84.36.44a.71.71,0,0,1-.1.54c.2-.31.52-.13.62-.67.2.57.67-.15.65.81.06-.23.35-.75.53-.79-.33,1.15.68.07.59,1.3.25-1,.89-.46,1.32-1,0,.08-.07.25-.11.2.24.09.32.4.47.59,0-.85.41-1,.62-1.57.3.82-.18,1-.09,1.79,0-.69.52-.69.42-1.27a2,2,0,0,1,.32,1c0-1.07.21-.18.4-.84.33.53.09,1,.45.68C363.35,330.14,363,330.52,363,330.52Zm8.66-1.84h0l-.18,0Zm.73,0a1.11,1.11,0,0,0-.32,0c0-.21,0-.43.08-.42S372.3,328.49,372.41,328.66Zm-1.54-4.24c.12-.09.15,0,.17.16a.77.77,0,0,0-.2.07v.07A2,2,0,0,1,370.87,324.42Z"/><path class="cls-1" d="M370.66,325.23s0,0,0,0l.07.14,0-.19Z"/><path class="cls-1" d="M436.61,326.13h0a.29.29,0,0,1,0,.09S436.62,326.16,436.61,326.13Z"/><polygon class="cls-1" points="382.45 329.83 382.45 329.68 382.39 329.82 382.45 329.83"/><path class="cls-1" d="M440.62,328.23a.4.4,0,0,0,.05.16A.52.52,0,0,0,440.62,328.23Z"/><path class="cls-1" d="M442.35,328.37l.24.22A.93.93,0,0,0,442.35,328.37Z"/><path class="cls-1" d="M443.68,328.67a2.5,2.5,0,0,0,0-.26h0Z"/><path class="cls-1" d="M422.52,329.39l-.05,0C422.35,329.54,422.43,329.49,422.52,329.39Z"/><path class="cls-1" d="M428.82,328a1.57,1.57,0,0,1-.2.29C428.72,328.3,428.81,328.31,428.82,328Z"/><path class="cls-1" d="M415.49,330.13h0Z"/><path class="cls-1" d="M428.32,328.24a.18.18,0,0,0,.29,0C428.52,328.21,428.41,328.15,428.32,328.24Z"/><path class="cls-1" d="M449.44,329l.06,0a.46.46,0,0,1,0-.1Z"/><path class="cls-1" d="M449.52,328.88l.07-.07S449.53,328.81,449.52,328.88Z"/><path class="cls-1" d="M449.74,328.65l-.15.15C449.64,328.81,449.7,328.83,449.74,328.65Z"/><path class="cls-1" d="M447.68,328.67l0,.22A1.13,1.13,0,0,0,447.68,328.67Z"/><path class="cls-1" d="M447.15,328.73c.13.05.32.47.5.33l0-.18C447.58,329.22,447.27,328.36,447.15,328.73Z"/><path class="cls-1" d="M444.91,326l.45.18c-.08-.24-.18-.55,0-.61C444.82,324.85,445.5,326.08,444.91,326Z"/><path class="cls-1" d="M443.52,325.65c.24-.11,0-.34,0-.48C443.38,325.39,443.34,325.44,443.52,325.65Z"/><path class="cls-1" d="M433.47,325.64l0-.56C433.31,325.17,433.49,325.3,433.47,325.64Z"/><polygon class="cls-1" points="431.55 328.52 431.73 328.87 431.82 328.36 431.55 328.52"/><polygon class="cls-1" points="430.41 324.56 430.5 324.48 430.19 324.68 430.41 324.56"/><path class="cls-1" d="M413.53,324.75l.06.69C413.71,325.32,413.74,324.55,413.53,324.75Z"/><path class="cls-1" d="M406.24,325.45c-.08-.34-.28-.56-.41-.23C406,325.27,406.16,325.54,406.24,325.45Z"/><polygon class="cls-1" points="384.39 324.33 384.53 324.11 384.26 324.3 384.39 324.33"/><line class="cls-2" x1="443.09" y1="187.98" x2="443.09" y2="383.52"/><path class="cls-3" d="M338.35,253.87c35.28,0,63.88,30.79,63.88,68.79"/><path class="cls-4" d="M336.57,383.52a64.9,64.9,0,0,1-2.17-129.77"/><path class="cls-5" d="M380.73,366.2a64.67,64.67,0,0,1-44.16,17.32"/><path class="cls-5" d="M402.23,322.66c-.44,17.52-8.8,33.1-21.85,43.86"/><path class="cls-5" d="M334.4,253.75c.73,0,1.46,0,2.17,0A64.63,64.63,0,0,1,379,269.47"/><line class="cls-5" x1="405.04" y1="330.31" x2="324.21" y2="330.31"/><path class="cls-6" d="M590.94,252.92A64.94,64.94,0,1,1,526,188,64.94,64.94,0,0,1,590.94,252.92Z"/><path class="cls-1" d="M631.69,256.69c.08-.19,0-.61-.2-.53l-.16.72Z"/><path class="cls-1" d="M630.13,255.36a1.91,1.91,0,0,0-.41,1.62c.27-.69.34-.4.63-1.23.23-.08.41.23.37.5.08-.18.36.16.49-.29-.3-.56-.68-.58-1.08-.12C630,255.68,630.11,255.49,630.13,255.36Z"/><path class="cls-1" d="M607.45,254.24l.15.09A.26.26,0,0,0,607.45,254.24Z"/><path class="cls-1" d="M593.39,253.84a.17.17,0,0,0,.16-.15C593.45,253.73,593.37,253.78,593.39,253.84Z"/><path class="cls-1" d="M591,253l.14,0C591.08,253,591,253,591,253Z"/><path class="cls-1" d="M607.45,254.24l-.38-.23C607,254.24,607.26,254.18,607.45,254.24Z"/><path class="cls-1" d="M627,257.1a.51.51,0,0,0,.2-.19L627,257S627,257.06,627,257.1Z"/><path class="cls-1" d="M613.64,253.65h.11a2.47,2.47,0,0,0,.09-.29Z"/><path class="cls-1" d="M618.4,253.54c-.11,0-.14.59-.19.85.06-.25.14-.37.23-.42A2,2,0,0,0,618.4,253.54Z"/><path class="cls-1" d="M625.94,254.62l.13-.08Z"/><path class="cls-1" d="M610.24,253.52a.87.87,0,0,0,0-.22A.61.61,0,0,0,610.24,253.52Z"/><path class="cls-1" d="M477.25,258.12s0-.07,0-.11S477.21,258.11,477.25,258.12Z"/><path class="cls-1" d="M471.74,255.09l.08,0c0-.12,0-.23,0-.34Z"/><path class="cls-1" d="M586.6,252.26h0C586.73,252.2,586.67,252.22,586.6,252.26Z"/><path class="cls-1" d="M546.28,252.71c.46.55-.74.7-.06,1.31C546.16,253.78,546.85,253.07,546.28,252.71Z"/><path class="cls-1" d="M626.88,257h-.2A.28.28,0,0,0,626.88,257Z"/><path class="cls-1" d="M546.23,254h0l.07.06Z"/><path class="cls-1" d="M576.48,252.63a.9.9,0,0,0,.1.27A.59.59,0,0,0,576.48,252.63Z"/><path class="cls-1" d="M584,253.5l-.19-.08A.38.38,0,0,0,584,253.5Z"/><path class="cls-1" d="M572.57,253.49c-.1,0-.14-.13-.27,0l0,.07C572.38,253.44,572.45,253.4,572.57,253.49Z"/><path class="cls-1" d="M568.49,253.5a1.22,1.22,0,0,0,.08.12l.13,0Z"/><path class="cls-1" d="M489.63,257.82a2.34,2.34,0,0,1-.19-.55C489.5,257.71,488.9,257.86,489.63,257.82Z"/><path class="cls-1" d="M627,256.75c0,.15-.06.23-.12.26l.14,0A.42.42,0,0,0,627,256.75Z"/><path class="cls-1" d="M572.4,258.32l-.65-.09A2.17,2.17,0,0,0,572.4,258.32Z"/><path class="cls-1" d="M518.85,257.74l-.15.07A.13.13,0,0,0,518.85,257.74Z"/><path class="cls-1" d="M569.83,258.32a1.08,1.08,0,0,0-.36-.42.57.57,0,0,0-.08.16Z"/><path class="cls-1" d="M489.44,257.27h0Z"/><path class="cls-1" d="M485.17,258.72c.62,0,.29-.79.42-1.25.74-.23.34.59.59,1,.46-.21.81-1,1.15-.92,0,.13.09.18,0,.35.49-.64,1.44,0,2-.83a.58.58,0,0,1,.07.2,4,4,0,0,1-.09-1.1c.28,0,.51-.51.62,0-.17,0-.18.2-.26.36l.29-.23c.26.76-.4.26-.4.82.56-.25,1.22-.87,1.66-.66.09.74-1,.25-.43.91l-.67-.28c.51,1.17-.41-.08.06,1.17.88.21,1-.38,1.87-.16.2-.41-.07-.61.13-1,1.25-.74,1,1.86,1.9.87.24-.49.33-1.43,1-.93l-.22.84c.85.08.49-1.2,1.38-.64-.16.33-.67.28-.54.38.58.66.41-.47.85-.47l.09.74c.91-.12,1.91-.65,2.92-.79-.06.22-.23.45,0,.68a6.65,6.65,0,0,1,3.93.53l.47-.64c.11,0,.2.29.08.41.48.24,0-.41.25-.66.27,0,.36.37.19.56.84-.54,2.4-1.17,3.29-.48l-.17.19c.69.26.78-1.31,1.42-.71l-.12.11c1.5.28,3.16-.31,4.3.66.22-.92,1.48.41,1.58-.87.86.64.61.87,1.82,1.29.32.06.48-.8.88-.94v.67l.54-.7.29.8.37-.17a.53.53,0,0,1-.29-.49c.58-.3,1.42.47,1.44.81l1.38-.57c0,.27-.26.36-.44.53.74-.68.13.71.81.08-.09-.15,0-.4.06-.54a1.68,1.68,0,0,0,1.67.24l-.11.46c1,.12,2.16-.22,3.31-.21-.41-.22-.32-1,0-1.09l.13.71c.22-.44-.35-.27.09-.8.43.08.29.81,0,1l.52-.25c0,.21-.09.32-.12.59.21-.44.9.71,1.21-.05l0,.21c1.15,0,1.67-.24,2.6-.27,0-.61.38-.48.66-1a6.79,6.79,0,0,0,2.28.62c.58-.3.17-.52.43-.88,0,.56.87.51.44.91a7.54,7.54,0,0,0,2.53-.56c-.14-.23-.29-.33-.21-.52s.52.23.49.5l-.06.06c1.41-.84,3.26,1.63,4.38.46l-.06.06,1.17-.61c.54.1-.32.42.08.76,1.26-.93,2,.13,3-.49.8,1.64,2.84-.12,3.92.93l-.06-.39c.28-.38.34.22.54.31,0-.3-.3-.35-.13-.56,2.37-.47,4.89.57,7.31.92.89.1.5-2,1.62-1.08l-.32.72c1.79-.86,3.66,0,5.42-.7-.1.17-.11.38-.28.38.37.52,1.37,0,1.38-.4.27,0,.06.39.23.6.37.31.93-.67,1.13-.15,0,.08-.1.17-.17.21.24-.25,1.13.06.9-.54.66.29,1.26-.27,1.78.09.34-.67,1.13.32,1.24-.63,0,1,1.15.79,1.57.33-.14.3.36.31.2.72.48,0,.91-.2.83-.7.88,1.18,1.76-.95,2.25.56a22.89,22.89,0,0,1,4-1.12c0,1-1.4.1-1.35,1.13,1.2-.4,1.9-1.25,3.09-1,.31.13-.18.43-.28.59,1.2-.4,2.33.09,3.4-.45,0,.09-.12.19-.23.27.21,0,.49.14.47-.3l-.21.12c-.34-.65.84-1.35.88-1.7-.36,1.28,1.06.32.49,1.94a.62.62,0,0,0,.28-.59c.21.09.27.26.06.6.76-.24.49-.72,1.17-.71,0,.22-.14.3-.21.55.35-.42.7-.84,1.27-.66,0,.13,0,.3-.14.3,1-.07,1.69-1.12,2.78-.72-.32.94.37.31.43,1.12l.59-.24-.24-.39c.51,0,1-.58,1.41-.31l-.38.33,1-.15-.54-.31c.52-.42-.06-1,.63-.8-.14.08.51,0,.78.49h0c.25-.26.52-.53.89-.33.1.26-.08.9,0,1.07.25-.68,1.2-.19,1.52-.91a1.22,1.22,0,0,0-.08.68l.21-.55c.24.18.27.26.23.6.72.1-.23-1,.62-.59-.07,0,0,.13-.17.21.85.23,1.65-.35,2.43-.08.23.82-.68.2-.42.89,1.13-.15,2.34-1,3.43-.79l-.2-.09c.15-1.15.81.57,1.37,0-.14.09-.18.64-.14.51.75.19,1.53-.28,2.67-.65l-.14.3c.44.26,1.16.15,1.64.29.14-.3.41-.25.25-.68,1.47,1.69,2.8-.91,4.11.5-.16,0-.37.26-.25.26l1.11-.27c-.09-.5-.15-.3-.38-.7a.9.9,0,0,1,.73-.53c-.5.33,0,.81.22,1.09,0-.15,0-.32,0-.48.58.9.1-1,.89-.41l0,.26c.3-.13.57-.48.89-.41.13.58-.32.27-.34.75.45,0,.89-1.1,1.29-.52-.19.16-.47.16-.66.33.44.68.49.51.82.62l0,0,.76.31-.19-.19c.56-1.52,1.14-.28,1.9-1.27-.74.94-.12.54-.18,1.2.19.18.49.39.4.57.36-.53.6.42,1.1-.36,0,.21.38,0,.3.55.47-.17-.11-.37-.07-.64.72-.72,1.69.88,2.72-.12.89-.41,1.05-1.13,1.88-1.48.28.34-.23.77-.23.77a1,1,0,0,0,1.21,0c-.09.19,0,.34.13.58.34-.06.23-.77.68-.46a3.49,3.49,0,0,1-.34.85c.4-.2.8-.59,1.21-.78.11.37-.25.56-.4.8.47-.17,1.21-.34,1.35-.92l-.3-.21c.17,0,.09.5,0,.61-.4.46-.58-.2-.6-.42l.3-.14c-.3-1.24-1.19.2-1.78.13l.25-.91-.61.75c-.13-.24-.22-.74.08-.88-.43-.45-.38.32-.74-.18a.12.12,0,0,1,0-.16l-.42.27c.08-.19-.07-.64.19-.51-.75-.52-1.21.68-1.49,0l.06-.06c-1,.31-.1.66-.88,1.44l-.52-1.64-.1.66c-.11,0-.32-.07-.28-.34-.4.45.07.29-.16.72-.51-.61-1.42.28-1.54-.78-.18.5.49.39-.06.74-.16-1.14-.64.19-1.11-.33.14-.59.59-.28.12-.8-.28,1-.92-.22-1.31,0,0,.79-.86.33-1.53.59,0-.27-1.25-.43-1.87-.72l0-.13c-.12.8-.76.65-1.22.81a1,1,0,0,1,.35-.88h-.44a.74.74,0,0,1-.52.48l.11-.6c-.58,0-1.17.7-1.92.3,0,.56.6,1.55-.2,1.92,0-.3-.06-.82.15-.94-.07,0-.24.25-.38.12l.32-.51c-.34-.22-.18.42-.45.38,0-.43-.2-.31-.16-.65.07,0,.24.18.34,0a1.22,1.22,0,0,1-.8-.66c0,.24,0,.58-.23.63-.58,0-.2-.52-.54-.74-.14.3-.51,0-.52.63-.17,0-.2-.3-.27-.48-.3.28-1.41.08-1.07.76l.08,0,0,0h0c-1,.64-2.05-.36-3-.09v-.22c-.58.25-1.3.15-1.72.61-.17,0-.41-.39-.33-.65-.45.16-.5.4-1.14,0,.45-.38-.16-.33.46-.27-.58-.19-.71-.53-1.34.06.21-.55-.44-.69-.71-.53l.41.39a1.94,1.94,0,0,1-.86,0l.15-.72c-1.19-.88-2.14,1.5-3,0-.31.51.65.36.36.95-.55-.1-1.12-1.14-1.29-1.14-.75-.4-.7,1.06-1.48.78a.91.91,0,0,1-.39,1.19c-.55-.1-.67-1.08-.33-1.29.13,0,.19.06.19.15.18-.09.41-.2.19-.48l-.07.26c-.27-.26-1-.24-.85-.66-.41.25-.18.42.13.56-.7-.37-1.1,0-1.82-.26.11.14.22.45.11.44-1.06-.32-.47.49-1.18.6-.41-.39.15-.94-.58-.61-.44-.27-.09-.69.08-.9-.66.5-1.23-.33-1.61-.42l.35-.21a.94.94,0,0,1-.55.12l.2.52c-.2-.09-.38-.09-.37-.31-.21.34.16.86-.26,1.32-.27-.26-.83.28-.92-.4.85.23-.09-.69.63-.8a.54.54,0,0,1-.51,0c0-.08,0-.14.08-.18-.82-.61-.38.78-1.22.76.11-.39-.2-.73-.33-.65.34,0,.16.64-.15.94-.54-.3-.59.22-.87.19l.32.14c-.11.39-.38.34-.76.46,0-.3.34-.21.21-.34-.42.68-.95-.7-1.54-.25-.27-.26,0-.73-.26-.9-.66.5-.71-.53-1.4-.12.2.52.23.39-.25.9l1.13-.37-.73.76c.34,0,.72-.33.93-.24-.35.42-.31.29-.15.73-.47-.78-.93.45-1.47-.07l0-1.29c-.81-.57-1.45.66-2.5.34l.34.22c-.14.51-.65.07-1,.28,0-.43-.18-.59-.33-.85,0,.32-.77,0-.87.83l-.47-.57c-.85-.23-1,1.22-1.8,1.08.25-.47-.13-.77.42-1.11-.27,0-.52-.08-.52.21-.16-.27-.76.58-1,.17-.12.19-.15.64-.46.6a.41.41,0,0,1,0-.21c0,.21-.48.29-.21.76-.84-1.34-2.36.1-3.09-1.05a11.65,11.65,0,0,1-1.86.31c0-.13,0-.21.1-.17-.75-.4-.46,1.23-1.31.79-.44-.69.45-.38.18-.64-.12-1.41-1,.19-1.6-.63l.14-.08c-.44-.48-1.07.54-1.79.43a.43.43,0,0,0,0-.21,3.59,3.59,0,0,1-2.11,1.16c.21-.55.31-.29.18-.86-.31.08.09.9-.53,1.06-.2-.3-.65-.57-.7-1.17l.58,0c-.3-.78-.75,0-1.06-.11l0-.34c-.89.11-.9,1-1.86.9l.1.26c-.52.85-.44-.48-1,.15l-.16-.86a8.43,8.43,0,0,1-1.83,1c.35-.64,1.08-1,1.52-1.34-.34,0-1.16.06-1.34.49.14-.08.31-.29.45-.16a1.84,1.84,0,0,1-1.65,1c.12-1.67-1.78-.42-2.27-1.71-1.21.62-2.39-.26-3.8-.16.5,1.3-.41,0-.32,1.37-.33.09-.45.06-.48,0l-1-.8c-.24-.39.31-.29.28-.59-.72-.1-.3-.56-.78-.92.1.48-.25.68-.66.5l.58.61c-1,.71-.87-1.12-1.88-.42l.32-.42c-.52.25-1.91,0-2.42,1.06-.09-.15-.21-.52,0-.61-1.24-.16-2.76,1.14-3.72.48l.09-.33c-.23.09-.4.61-.69.28,0-.13.09-.32,0-.34s-.61.57-.92.38l.26-.37c-1.21-.43-1.85.89-2.87,1.11,0-1-.95-1.27-1.42-1.42l0-.14c-1.41-.12-2.39.79-3.69,1.17-.81-1-2.74-.44-4-1,.2.17,0,.75-.26.84-.31-.19-.84.66-.79-.21l.11,0c-.23-.86-.86-.63-1.35-.66l-.08,1.15c-1.28-1.67-3.35.61-4.05-.88-.31.29-.69.28-1,.57l0-.62a5.91,5.91,0,0,0-2.34-.09l.22-.44c-.6,0-.75,1.78-1.3,1.81l-.17-.92c-1,0-2.1-.79-3.12,0,0-.13,0-.4.22-.44-.49,0-1.9-.62-1.72.64,0-.82-1.07-.08-1.64.28l.09-.61c-.47.77-.49,1-1.15,1.2-.16-.08-.14-.49.07-.33-.52-.32-.41.57-1,.25l.24-.39c-.54,0-.5.16-.79.61-.34.24-1-.15-1.1-.7-.07.33-.37.78-.68.62a.43.43,0,0,1,.13-.4c-.9-.41-1.34.71-2,.11a.6.6,0,0,0-.1-.36,4.7,4.7,0,0,1,1.24.09c0-.56-.58-.66-.12-1.43-.46.42-1.26,1.34-1.82,1.07a.8.8,0,0,1-.07-.19l.06-.06a.33.33,0,0,0-.36.09,1.09,1.09,0,0,0-.47-.17c-.07-.46-.66-.25-1-.27,0,.61-.35.51,0,1,0,0,.05-.07.25-.1a.28.28,0,0,0,.12-.06l0,.05.72,0c-.23.31-.47.57-.78.23-.15.39-.31.8-.4,1-.39-.85-1.15-1.31-1.26-1.84-.88.34-2.07.23-2.63,1.38-.25.15-.29-.33-.38-.51.14-.12.32-.1.39-.26-.5.29-1.48.11-1.6.92-.63-.36.35-.74-.51-.61l.12-.25c-1.7-1.28-2.77,2-4.66.4.13.1.2.15.22.28-2.15-.73-4.44.68-6.56-.47-.6-.23-.67.28-1,.67l-.13-.66-.63.76c-.89.56-1.55-1.61-2.68-.56l.15.44c-.41-.08-1.29.26-1.22-.25,0,.08-.13.46-.29.23v-.34l-1,.59c-.77-.25.12-1.37-1-1.43-.42.13-1.2,1-1,1.23a.57.57,0,0,1,.45.56l-.38.18c-.07,1-.36,2.05.58,2.76l.66-.62.21.49-.55,0c.31.46.51.05.73-.23a.87.87,0,0,0,.28.54l.64-1c.08.4-.29.79.14,1,.3-.45-.29-.89.21-1.18.31.46.22.84.59.44a.5.5,0,0,1-.17.54c.33-.31.87-.13,1-.67.33.57,1.11-.15,1.08.81.1-.23.58-.75.88-.79-.55,1.15,1.13.07,1,1.3.41-1,1.47-.46,2.19-1,0,.08-.12.25-.18.2.41.09.52.4.79.59.05-.85.69-1,1-1.57.5.82-.3,1-.15,1.79,0-.69.87-.69.7-1.27.38.51.33.25.52,1,.07-1.07.35-.18.67-.84.55.53.14,1,.75.68C485.71,258.34,485.17,258.72,485.17,258.72Zm14.4-1.84h0l-.3,0Zm1.21,0a3.05,3.05,0,0,0-.53,0c0-.21,0-.43.13-.42C500.32,256.57,500.61,256.69,500.79,256.87Zm-2.56-4.24c.19-.09.26,0,.28.16a1.91,1.91,0,0,0-.34.07l0,.07A1.25,1.25,0,0,1,498.23,252.63Z"/><path class="cls-1" d="M497.88,253.43s0,0-.08,0l.11.14.07-.19Z"/><path class="cls-1" d="M607.62,254.34h0a.24.24,0,0,1,.05.09A.53.53,0,0,1,607.62,254.34Z"/><polygon class="cls-1" points="517.5 258.04 517.5 257.88 517.4 258.02 517.5 258.04"/><path class="cls-1" d="M614.28,256.44a.31.31,0,0,0,.09.16A.4.4,0,0,0,614.28,256.44Z"/><path class="cls-1" d="M617.16,256.57l.41.22A1.59,1.59,0,0,0,617.16,256.57Z"/><path class="cls-1" d="M619.38,256.88a1.55,1.55,0,0,0,0-.26h0Z"/><path class="cls-1" d="M584.17,257.6l-.09,0C583.89,257.74,584,257.69,584.17,257.6Z"/><path class="cls-1" d="M594.65,256.17a1.87,1.87,0,0,1-.34.29C594.5,256.5,594.64,256.51,594.65,256.17Z"/><path class="cls-1" d="M572.47,258.33h0Z"/><path class="cls-1" d="M593.82,256.44a.42.42,0,0,0,.49,0A.62.62,0,0,0,593.82,256.44Z"/><path class="cls-1" d="M629,257.15l.11,0a.28.28,0,0,1,0-.1Z"/><path class="cls-1" d="M629.09,257.08l.12-.07C629.16,257,629.11,257,629.09,257.08Z"/><path class="cls-1" d="M629.46,256.85l-.25.15C629.3,257,629.41,257,629.46,256.85Z"/><path class="cls-1" d="M626,256.87l0,.22A.7.7,0,0,0,626,256.87Z"/><path class="cls-1" d="M625.15,256.94c.21.05.53.47.83.33l0-.18C625.87,257.42,625.35,256.56,625.15,256.94Z"/><path class="cls-1" d="M621.43,254.19l.75.18c-.13-.24-.3-.55,0-.61C621.28,253.05,622.41,254.29,621.43,254.19Z"/><path class="cls-1" d="M619.12,253.85c.4-.11,0-.34,0-.48C618.88,253.59,618.82,253.64,619.12,253.85Z"/><path class="cls-1" d="M602.39,253.85l0-.56C602.13,253.37,602.43,253.51,602.39,253.85Z"/><polygon class="cls-1" points="599.2 256.73 599.5 257.07 599.64 256.56 599.2 256.73"/><polygon class="cls-1" points="597.31 252.76 597.44 252.68 596.93 252.88 597.31 252.76"/><path class="cls-1" d="M569.22,253l.09.69C569.52,253.52,569.56,252.75,569.22,253Z"/><path class="cls-1" d="M557.09,253.66c-.13-.34-.47-.56-.68-.23C556.68,253.48,557,253.74,557.09,253.66Z"/><polygon class="cls-1" points="520.72 252.54 520.97 252.31 520.51 252.5 520.72 252.54"/><path class="cls-1" d="M324.39,328.49c0-.19,0-.61-.1-.53l-.09.72Z"/><path class="cls-1" d="M323.59,327.16a3.29,3.29,0,0,0-.21,1.62c.14-.69.17-.4.32-1.23.12-.08.21.23.19.5,0-.18.19.16.25-.29-.16-.56-.35-.58-.56-.12A1.4,1.4,0,0,1,323.59,327.16Z"/><path class="cls-1" d="M311.83,326l.08.09A.15.15,0,0,0,311.83,326Z"/><path class="cls-1" d="M304.55,325.64c.06,0,.08-.09.08-.15S304.54,325.58,304.55,325.64Z"/><path class="cls-1" d="M303.31,324.84l.07,0C303.35,324.83,303.33,324.79,303.31,324.84Z"/><path class="cls-1" d="M311.83,326l-.19-.23C311.62,326,311.74,326,311.83,326Z"/><path class="cls-1" d="M322,328.89a.45.45,0,0,0,.11-.19l-.1.08S322,328.85,322,328.89Z"/><path class="cls-1" d="M315,325.45h.06c0-.08,0-.18,0-.29Z"/><path class="cls-1" d="M317.51,325.34a3.43,3.43,0,0,0-.1.85.79.79,0,0,1,.12-.42A3.92,3.92,0,0,0,317.51,325.34Z"/><path class="cls-1" d="M321.41,326.41l.07-.08Z"/><path class="cls-1" d="M313.28,325.32a1.58,1.58,0,0,0,0-.22A1.12,1.12,0,0,0,313.28,325.32Z"/><path class="cls-1" d="M244.37,329.92s0-.07,0-.11S244.36,329.91,244.37,329.92Z"/><path class="cls-1" d="M241.52,326.88l0,0c0-.12,0-.23,0-.34Z"/><path class="cls-1" d="M301,324.06h0C301.1,324,301.07,324,301,324.06Z"/><path class="cls-1" d="M280.14,324.51c.24.55-.39.7,0,1.31C280.08,325.58,280.44,324.87,280.14,324.51Z"/><path class="cls-1" d="M321.9,328.81h-.1S321.88,328.84,321.9,328.81Z"/><path class="cls-1" d="M280.12,325.82h0l0,.06Z"/><path class="cls-1" d="M295.79,324.43a1.49,1.49,0,0,0,.05.27A1,1,0,0,0,295.79,324.43Z"/><path class="cls-1" d="M299.7,325.3l-.1-.08A.17.17,0,0,0,299.7,325.3Z"/><path class="cls-1" d="M293.76,325.29c-.05,0-.07-.13-.14,0l0,.07C293.67,325.23,293.7,325.19,293.76,325.29Z"/><path class="cls-1" d="M291.65,325.3s0,.08,0,.12l.07,0Z"/><path class="cls-1" d="M250.79,329.62a4,4,0,0,1-.1-.55C250.72,329.51,250.41,329.66,250.79,329.62Z"/><path class="cls-1" d="M322,328.55c0,.15,0,.23-.06.26l.07,0A.79.79,0,0,0,322,328.55Z"/><path class="cls-1" d="M293.68,330.12l-.34-.09A.64.64,0,0,0,293.68,330.12Z"/><path class="cls-1" d="M265.93,329.53l-.08.07S265.91,329.6,265.93,329.53Z"/><path class="cls-1" d="M292.35,330.12a1.16,1.16,0,0,0-.19-.42.87.87,0,0,0,0,.16Z"/><path class="cls-1" d="M250.69,329.06h0Z"/><path class="cls-1" d="M248.48,330.52c.32,0,.15-.79.22-1.25.38-.23.18.59.31,1,.24-.21.42-1,.6-.92a.74.74,0,0,1,0,.35c.25-.64.75,0,1-.83a1,1,0,0,1,0,.2,7.72,7.72,0,0,1,0-1.1c.14,0,.27-.51.32,0-.09,0-.1.2-.14.36l.15-.23c.14.76-.2.26-.2.82.29-.25.63-.87.86-.66,0,.74-.52.25-.23.91l-.35-.28c.27,1.17-.21-.08,0,1.17.46.21.51-.38,1-.16.1-.41,0-.61.07-1,.65-.74.51,1.86,1,.87.12-.49.17-1.43.51-.93l-.12.84c.44.08.25-1.2.72-.64-.08.33-.35.28-.28.38.3.66.21-.47.44-.47l0,.74c.47-.12,1-.65,1.51-.79a1,1,0,0,0,0,.68c.66-.37,1.4.09,2,.53l.24-.64c.06,0,.1.29,0,.41.25.24,0-.41.13-.66.14,0,.19.37.1.56.44-.54,1.24-1.17,1.7-.48l-.09.19c.36.26.4-1.31.74-.71l-.06.11c.78.28,1.64-.31,2.23.66.11-.92.77.41.82-.87.44.64.32.87.94,1.29.17.06.25-.8.45-.94v.67l.28-.7.15.8.19-.17a.69.69,0,0,1-.15-.49c.3-.3.74.47.74.81l.71-.57a1,1,0,0,1-.23.53c.38-.68.07.71.42.08a1.73,1.73,0,0,1,0-.54.57.57,0,0,0,.86.24l-.06.46c.53.12,1.12-.22,1.71-.21-.21-.22-.16-1,0-1.09l.07.71c.11-.44-.18-.27,0-.8.22.08.15.81,0,1l.27-.25a4.55,4.55,0,0,1-.06.59c.11-.44.47.71.63-.05l0,.21a10.1,10.1,0,0,0,1.35-.27c0-.61.2-.48.34-1,.36.2.75.68,1.18.62.3-.3.09-.52.22-.88,0,.56.45.51.23.91a2.44,2.44,0,0,0,1.31-.56c-.07-.23-.15-.33-.11-.52s.27.23.25.5l0,.06c.73-.84,1.69,1.63,2.27.46l0,.06.6-.61c.28.1-.17.42,0,.76.65-.93,1,.13,1.57-.49.42,1.64,1.47-.12,2,.93l0-.39c.14-.38.18.22.28.31,0-.3-.16-.35-.07-.56,1.23-.47,2.53.57,3.79.92.46.1.26-2,.84-1.08l-.16.72c.93-.86,1.9,0,2.81-.7-.05.17-.06.38-.14.38.19.52.71,0,.71-.4.14,0,0,.39.12.6s.48-.67.59-.15a.28.28,0,0,1-.09.21c.13-.25.58.06.46-.54.34.29.65-.27.92.09.18-.67.58.32.64-.63,0,1,.6.79.81.33-.07.3.19.31.1.72.25,0,.47-.2.43-.7.45,1.18.91-.95,1.17.56a8.07,8.07,0,0,1,2.07-1.12c0,1-.73.1-.7,1.13.62-.4,1-1.25,1.6-1,.16.13-.09.43-.14.59.62-.4,1.21.09,1.76-.45a.51.51,0,0,1-.12.27c.11,0,.25.14.24-.3l-.11.12c-.17-.65.43-1.35.45-1.7-.19,1.28.55.32.25,1.94a.89.89,0,0,0,.15-.59c.11.09.14.26,0,.6.39-.24.25-.72.61-.71a3.85,3.85,0,0,1-.11.55c.18-.42.36-.84.66-.66,0,.13,0,.3-.07.3.51-.07.88-1.12,1.44-.72-.17.94.19.31.22,1.12l.3-.24-.12-.39c.27,0,.5-.58.73-.31l-.2.33.5-.15-.28-.31c.27-.42,0-1,.33-.8-.07.08.27,0,.4.49h0c.13-.26.27-.53.46-.33s0,.9,0,1.07c.13-.68.62-.19.79-.91a2.3,2.3,0,0,0,0,.68l.11-.55c.12.18.14.26.12.6.37.1-.12-1,.32-.59,0,0,0,.13-.09.21.44.23.85-.35,1.26-.08.12.82-.35.2-.22.89.59-.15,1.21-1,1.78-.79l-.11-.09c.08-1.15.42.57.71,0a1.39,1.39,0,0,0-.07.51c.39.19.79-.28,1.38-.65l-.07.3c.23.26.6.15.85.29.07-.3.21-.25.13-.68.76,1.69,1.45-.91,2.13.5-.08,0-.19.26-.13.26l.58-.27c0-.5-.08-.3-.2-.7.07-.3.24-.53.38-.53-.26.33,0,.81.11,1.09,0-.15,0-.32,0-.48.3.9.05-1,.46-.41l0,.26c.15-.13.3-.48.46-.41.07.58-.16.27-.17.75.23,0,.46-1.1.67-.52-.1.16-.24.16-.34.33.23.68.26.51.43.62l0,0,.39.31-.1-.19c.29-1.52.59-.28,1-1.27-.38.94-.06.54-.09,1.2.1.18.25.39.21.57.19-.53.31.42.57-.36,0,.21.2,0,.16.55.24-.17-.06-.37,0-.64.37-.72.87.88,1.41-.12.46-.41.55-1.13,1-1.48a1,1,0,0,1-.12.77c.23.31.41.26.63,0a1.1,1.1,0,0,0,.07.58c.18-.06.12-.77.35-.46a5.73,5.73,0,0,1-.18.85c.21-.2.41-.59.63-.78.06.37-.13.56-.21.8a1.2,1.2,0,0,0,.7-.92l-.15-.21c.09,0,0,.5,0,.61-.21.46-.3-.2-.31-.42l.15-.14c-.16-1.24-.61.2-.92.13l.13-.91-.32.75c-.07-.24-.11-.74,0-.88-.22-.45-.2.32-.39-.18a.2.2,0,0,1,0-.16l-.22.27c0-.19,0-.64.1-.51-.39-.52-.62.68-.77,0l0-.06c-.54.31-.05.66-.45,1.44l-.27-1.64-.05.66c-.06,0-.17-.07-.14-.34-.21.45,0,.29-.08.72-.27-.61-.74.28-.8-.78-.1.5.26.39,0,.74-.08-1.14-.33.2-.57-.33.07-.59.31-.28.06-.8-.15,1-.47-.22-.68,0,0,.79-.45.33-.79.59,0-.27-.65-.43-1-.72v-.13c-.06.8-.39.65-.63.81a1.54,1.54,0,0,1,.18-.88h-.23a.65.65,0,0,1-.27.48l.06-.6c-.3,0-.61.7-1,.3,0,.56.31,1.55-.1,1.92a2.16,2.16,0,0,1,.08-.94s-.13.25-.2.12l.16-.51c-.18-.22-.09.42-.23.38,0-.43-.1-.31-.08-.65,0,0,.12.18.18,0a1,1,0,0,1-.42-.66c0,.24,0,.58-.12.63-.3,0-.1-.52-.28-.74-.07.3-.27,0-.27.63-.09,0-.1-.3-.14-.48-.16.28-.73.08-.55.76l0,0,0,0h0c-.51.64-1.06-.36-1.57-.09v-.22c-.3.25-.67.15-.89.61-.09,0-.21-.39-.17-.65-.23.16-.26.4-.59,0,.23-.38-.08-.33.24-.27-.3-.19-.37-.53-.69.06.11-.55-.23-.69-.37-.53l.21.39a.54.54,0,0,1-.44,0l.08-.72c-.62-.88-1.11,1.5-1.58,0-.16.51.33.36.19.95-.28-.1-.58-1.14-.67-1.14-.39-.4-.36,1.06-.77.78.05.26.1.95-.2,1.19-.28-.1-.35-1.08-.17-1.29.07,0,.1.06.1.15a.38.38,0,0,0,.1-.48l0,.26c-.14-.26-.53-.24-.44-.66a.34.34,0,0,0,.07.56c-.36-.37-.57,0-.94-.26.06.14.11.45.06.44-.55-.32-.24.49-.61.6-.21-.39.08-.94-.3-.61-.23-.27,0-.69,0-.9-.34.5-.64-.33-.83-.42l.18-.21a.31.31,0,0,1-.29.12l.1.52c-.11-.09-.19-.09-.19-.31-.11.34.08.86-.13,1.32-.14-.26-.43.28-.48-.4.44.23,0-.69.33-.8-.07.08-.16.08-.27,0a.23.23,0,0,1,0-.18c-.42-.61-.19.78-.63.76.06-.39-.1-.73-.17-.65.18,0,.08.64-.08.94-.28-.3-.31.22-.45.19l.17.14c-.06.39-.2.34-.39.46,0-.3.18-.21.11-.34-.22.68-.49-.7-.8-.25-.14-.26,0-.73-.14-.9-.34.5-.37-.53-.73-.12.1.52.12.39-.13.9l.59-.37-.38.76c.18,0,.37-.33.48-.24-.18.42-.16.29-.08.73-.24-.78-.48.45-.76-.07v-1.29c-.42-.57-.75.66-1.3.34l.18.22c-.07.51-.34.07-.52.28a2.06,2.06,0,0,0-.17-.85c0,.32-.4,0-.45.83l-.24-.57c-.44-.23-.5,1.22-.93,1.08.13-.47-.07-.77.22-1.11-.14,0-.27-.08-.27.21-.08-.27-.39.58-.52.17-.06.19-.08.64-.24.6a.77.77,0,0,1,0-.21c0,.21-.25.29-.11.76-.44-1.34-1.22.1-1.6-1.05a3.5,3.5,0,0,1-1,.31c0-.13,0-.21.05-.17-.39-.4-.24,1.23-.68.79-.23-.69.23-.38.09-.64-.06-1.41-.53.19-.83-.63l.07-.08c-.23-.48-.55.54-.93.43a.83.83,0,0,0,0-.21,2,2,0,0,1-1.09,1.16c.11-.55.16-.29.09-.86-.16.08,0,.9-.27,1.06a3.1,3.1,0,0,1-.36-1.17l.3,0c-.15-.78-.39,0-.55-.11l0-.34c-.46.11-.47,1-1,.9l.05.26c-.27.85-.23-.48-.5.15l-.08-.86a4.69,4.69,0,0,1-.95,1A4.61,4.61,0,0,1,285,325a.66.66,0,0,0-.7.49c.07-.08.16-.29.23-.16-.22.68-.5,1-.86,1,.06-1.67-.92-.42-1.18-1.71-.63.62-1.24-.26-2-.16.26,1.3-.21,0-.17,1.37-.17.09-.23.06-.25,0l-.51-.8c-.12-.39.16-.29.15-.59-.37-.1-.16-.56-.4-.92.05.48-.13.68-.34.5l.3.61c-.52.71-.45-1.12-1-.42l.17-.42c-.27.25-1,0-1.25,1.06,0-.15-.11-.52,0-.61-.64-.16-1.43,1.14-1.93.48l0-.33c-.12.09-.21.61-.36.28,0-.13,0-.32,0-.34s-.32.57-.48.38l.14-.37c-.63-.43-1,.89-1.49,1.12a1.47,1.47,0,0,0-.74-1.42v-.14c-.73-.12-1.24.79-1.91,1.17-.42-1-1.42-.44-2.09-1a1.09,1.09,0,0,1-.14.84c-.16-.19-.44.66-.41-.21l.06,0c-.12-.86-.44-.63-.7-.66l0,1.15c-.66-1.67-1.74.61-2.1-.88-.16.29-.36.28-.52.57v-.62a1.64,1.64,0,0,0-1.21-.09l.11-.44c-.31,0-.39,1.78-.68,1.81l-.09-.92c-.54,0-1.09-.79-1.62,0,0-.13,0-.4.11-.44-.25,0-1-.62-.89.64,0-.82-.56-.08-.85.28l0-.61c-.25.78-.25,1-.6,1.2-.08-.08-.07-.49,0-.33-.27-.32-.21.57-.54.25l.12-.39c-.28,0-.26.16-.41.61-.18.24-.53-.15-.57-.7,0,.33-.19.78-.35.62a.69.69,0,0,1,.07-.4c-.47-.41-.69.71-1,.11a1,1,0,0,0-.05-.36c.37,0,.67,0,.64.09,0-.56-.3-.66-.06-1.43-.24.42-.65,1.34-.94,1.07a1.36,1.36,0,0,1,0-.19l0-.06c-.07-.06-.13,0-.18.09-.09-.09-.15-.16-.24-.17,0-.46-.34-.25-.49-.27,0,.61-.18.51,0,1,0,0,0-.07.13-.1s0,0,.06-.06v.05l.37,0c-.12.31-.24.57-.41.23-.08.39-.16.8-.21,1-.2-.85-.6-1.31-.65-1.84-.46.34-1.07.23-1.36,1.38-.13.15-.15-.33-.2-.51s.16-.1.2-.26c-.26.29-.77.11-.83.92-.33-.36.18-.74-.27-.61l.06-.25c-.88-1.28-1.44,2.05-2.41.4a.51.51,0,0,1,.12.28c-1.12-.73-2.3.68-3.4-.47-.31-.23-.35.28-.54.67l-.07-.66-.33.76c-.46.56-.8-1.61-1.39-.56l.08.44c-.21-.08-.67.26-.63-.25,0,.08-.07.46-.15.23v-.34l-.52.59c-.4-.25.06-1.37-.52-1.43a2,2,0,0,0-.54,1.23c.09,0,.22.21.23.56l-.2.18a4.72,4.72,0,0,0,.3,2.76l.34-.62.11.49-.29,0c.16.46.27.05.38-.23a1.26,1.26,0,0,0,.14.54l.33-1c0,.4-.15.79.07,1,.16-.45-.15-.89.11-1.18.16.46.12.84.31.44a.81.81,0,0,1-.09.54c.17-.31.45-.13.54-.67.17.57.57-.15.56.81.05-.23.3-.75.46-.79-.29,1.15.58.07.51,1.3.21-1,.76-.46,1.14-1,0,.08-.06.25-.09.2.21.09.27.4.41.59,0-.85.35-1,.53-1.57.26.82-.16,1-.08,1.79,0-.69.45-.69.36-1.27a2.24,2.24,0,0,1,.27,1c0-1.07.18-.18.35-.84.29.53.07,1,.39.68A.8.8,0,0,1,248.48,330.52Zm7.46-1.84h0l-.15,0Zm.63,0a.83.83,0,0,0-.27,0c0-.21,0-.43.06-.42S256.48,328.49,256.57,328.66Zm-1.33-4.24c.1-.09.13,0,.15.16a.61.61,0,0,0-.17.07v.07A2.29,2.29,0,0,1,255.25,324.42Z"/><path class="cls-1" d="M255.07,325.23s0,0,0,0l.06.14,0-.19Z"/><path class="cls-1" d="M311.92,326.13h0a.32.32,0,0,1,0,.09S311.93,326.16,311.92,326.13Z"/><polygon class="cls-1" points="265.23 329.83 265.23 329.68 265.18 329.82 265.23 329.83"/><path class="cls-1" d="M315.38,328.23a.44.44,0,0,0,0,.16A.58.58,0,0,0,315.38,328.23Z"/><path class="cls-1" d="M316.87,328.37l.21.22A.85.85,0,0,0,316.87,328.37Z"/><path class="cls-1" d="M318,328.67c0-.11,0-.19,0-.26h0Z"/><path class="cls-1" d="M299.77,329.39l0,0C299.63,329.54,299.7,329.49,299.77,329.39Z"/><path class="cls-1" d="M305.2,328a1.59,1.59,0,0,1-.17.29C305.13,328.3,305.2,328.31,305.2,328Z"/><path class="cls-1" d="M293.71,330.13h0Z"/><path class="cls-1" d="M304.78,328.24c.1.12.18.1.25,0C304.95,328.21,304.86,328.15,304.78,328.24Z"/><path class="cls-1" d="M323,329l.06,0a.52.52,0,0,1,0-.1Z"/><path class="cls-1" d="M323.05,328.88l.06-.07S323.06,328.81,323.05,328.88Z"/><path class="cls-1" d="M323.24,328.65l-.13.15S323.21,328.83,323.24,328.65Z"/><path class="cls-1" d="M321.47,328.67l0,.22A1.29,1.29,0,0,0,321.47,328.67Z"/><path class="cls-1" d="M321,328.73c.11.05.28.47.43.33v-.18C321.38,329.22,321.11,328.36,321,328.73Z"/><path class="cls-1" d="M319.08,326l.39.18c-.07-.24-.16-.55,0-.61C319,324.85,319.59,326.08,319.08,326Z"/><path class="cls-1" d="M317.88,325.65c.21-.11,0-.34,0-.48C317.76,325.39,317.73,325.44,317.88,325.65Z"/><path class="cls-1" d="M309.22,325.64l0-.56C309.08,325.17,309.24,325.3,309.22,325.64Z"/><polygon class="cls-1" points="307.56 328.52 307.72 328.87 307.79 328.36 307.56 328.52"/><polygon class="cls-1" points="306.58 324.56 306.65 324.48 306.38 324.68 306.58 324.56"/><path class="cls-1" d="M292,324.75l0,.69C292.18,325.32,292.21,324.55,292,324.75Z"/><path class="cls-1" d="M285.74,325.45c-.07-.34-.25-.56-.35-.23C285.53,325.27,285.67,325.54,285.74,325.45Z"/><polygon class="cls-1" points="266.9 324.33 267.03 324.11 266.79 324.3 266.9 324.33"/></g></svg>