<svg xmlns="http://www.w3.org/2000/svg" viewBox="0 0 841.89 595.28"><defs><style>.cls-1,.cls-10,.cls-11,.cls-12,.cls-13,.cls-2,.cls-3,.cls-4,.cls-5,.cls-9{fill:none;stroke-miterlimit:10;}.cls-1,.cls-13,.cls-3,.cls-4,.cls-5{stroke:#117db2;}.cls-1,.cls-11,.cls-13,.cls-4,.cls-5,.cls-9{stroke-linecap:round;}.cls-1,.cls-2,.cls-3{stroke-width:7.67px;}.cls-10,.cls-2{stroke:#ffe900;}.cls-4{stroke-width:6.97px;}.cls-5{stroke-width:7.67px;}.cls-6{fill:#ffe900;}.cls-7{fill:#117db2;}.cls-8{fill:#95b2a1;}.cls-9{stroke:#ce6a63;stroke-width:23.44px;}.cls-10,.cls-11,.cls-12,.cls-13{stroke-width:19.17px;}.cls-11,.cls-12{stroke:#00a1b2;}</style></defs><title>gempy</title><g id="logo_gempy" data-name="logo gempy"><circle class="cls-1" cx="678.68" cy="380.1" r="23.17" transform="translate(290.92 1054.43) rotate(-89.35)"/><path class="cls-2" d="M455.26,356.26c12.8,0,23.17,11.17,23.17,24.95"/><path class="cls-1" d="M454.62,403.29a23.54,23.54,0,0,1-.79-47.07"/><path class="cls-3" d="M470.63,397a23.45,23.45,0,0,1-16,6.28"/><path class="cls-3" d="M478.47,380a23.5,23.5,0,0,1-8,17.07"/><path class="cls-3" d="M453.83,356.22h.79A23.44,23.44,0,0,1,470,361.92"/><line class="cls-3" x1="479.45" y1="383.98" x2="450.13" y2="383.98"/><path class="cls-3" d="M511.47,356.35c12.79,0,23.17,11.17,23.17,25"/><path class="cls-3" d="M512.48,403.42a23.54,23.54,0,0,1-.79-47.07"/><line class="cls-3" x1="538.29" y1="382.71" x2="505.59" y2="382.71"/><path class="cls-3" d="M527.78,397.14a23.46,23.46,0,0,1-16,6.28"/><line class="cls-1" x1="651.25" y1="358.12" x2="651.25" y2="445.02"/><path class="cls-3" d="M760.68,381.6a23.54,23.54,0,0,1-47.07.79"/><line class="cls-4" x1="760.87" y1="387.73" x2="740.53" y2="445.02"/><path class="cls-3" d="M640.11,380.51a23.54,23.54,0,0,0-47.07-.79"/><path class="cls-3" d="M593,379.74A23.54,23.54,0,0,0,546,379"/><line class="cls-3" x1="545.97" y1="377.81" x2="545.97" y2="407.16"/><line class="cls-5" x1="713.61" y1="358.12" x2="713.61" y2="382.97"/><line class="cls-5" x1="760.68" y1="358.12" x2="760.68" y2="382.64"/><rect class="cls-6" x="474.62" y="379.48" width="7.25" height="0.66"/><polygon class="cls-7" points="538.45 381.27 538.29 386.61 538.02 381.27 538.45 381.27"/><line class="cls-3" x1="593.04" y1="379.72" x2="593.04" y2="407.16"/><line class="cls-3" x1="640.11" y1="379.72" x2="640.11" y2="407.16"/></g><g id="logo"><path class="cls-8" d="M310.69,333.65c.06-.22,0-.71-.14-.61l-.11.83Z"/><path class="cls-8" d="M309.6,332.1a3.34,3.34,0,0,0-.29,1.88c.19-.8.23-.47.44-1.42.16-.1.28.27.25.57.06-.21.25.18.34-.34-.21-.65-.48-.67-.75-.14A1.4,1.4,0,0,1,309.6,332.1Z"/><path class="cls-8" d="M293.82,330.8l.1.1A.19.19,0,0,0,293.82,330.8Z"/><path class="cls-8" d="M284,330.34a.18.18,0,0,0,.11-.18C284.09,330.22,284,330.27,284,330.34Z"/><path class="cls-8" d="M282.38,329.42l.1.06C282.44,329.4,282.4,329.36,282.38,329.42Z"/><path class="cls-8" d="M293.82,330.8l-.26-.26C293.54,330.81,293.7,330.74,293.82,330.8Z"/><path class="cls-8" d="M307.42,334.11a.51.51,0,0,0,.14-.22l-.13.09S307.43,334.07,307.42,334.11Z"/><path class="cls-8" d="M298.13,330.13h.08c0-.09,0-.21.07-.34Z"/><path class="cls-8" d="M301.44,330c-.07,0-.1.68-.13,1,0-.29.1-.43.16-.49A3.89,3.89,0,0,0,301.44,330Z"/><path class="cls-8" d="M306.68,331.24l.09-.1Z"/><path class="cls-8" d="M295.76,330a1.62,1.62,0,0,0,0-.25A1.13,1.13,0,0,0,295.76,330Z"/><path class="cls-8" d="M203.26,335.29c0-.05,0-.08,0-.13S203.24,335.29,203.26,335.29Z"/><path class="cls-8" d="M199.43,331.79l.05,0c0-.13,0-.27,0-.4Z"/><path class="cls-8" d="M279.32,328.52h0C279.42,328.45,279.37,328.46,279.32,328.52Z"/><path class="cls-8" d="M251.28,329c.32.63-.52.81,0,1.52C251.2,330.28,251.68,329.45,251.28,329Z"/><path class="cls-8" d="M307.34,334h-.14C307.26,334.05,307.31,334,307.34,334Z"/><path class="cls-8" d="M251.24,330.56h0l0,.07Z"/><path class="cls-8" d="M272.29,328.94a1.51,1.51,0,0,0,.07.31A1,1,0,0,0,272.29,328.94Z"/><path class="cls-8" d="M277.53,330l-.13-.09A.23.23,0,0,0,277.53,330Z"/><path class="cls-8" d="M269.56,329.94c-.07-.05-.09-.15-.19-.06l0,.09C269.44,329.88,269.48,329.83,269.56,329.94Z"/><path class="cls-8" d="M266.73,329.95c0,.05,0,.09.05.14l.09,0Z"/><path class="cls-8" d="M211.88,335a4,4,0,0,1-.13-.64C211.79,334.82,211.37,335,211.88,335Z"/><path class="cls-8" d="M307.42,333.72c0,.18,0,.27-.08.31l.09,0A.79.79,0,0,0,307.42,333.72Z"/><path class="cls-8" d="M269.45,335.53l-.45-.1A1,1,0,0,0,269.45,335.53Z"/><path class="cls-8" d="M232.2,334.85l-.1.08S232.18,334.93,232.2,334.85Z"/><path class="cls-8" d="M267.66,335.53a1.27,1.27,0,0,0-.25-.49.91.91,0,0,0-.05.18Z"/><path class="cls-8" d="M211.74,334.31h0Z"/><path class="cls-8" d="M208.78,336c.43,0,.2-.91.29-1.44.51-.26.24.68.41,1.16.32-.25.56-1.1.8-1.06a.75.75,0,0,1,0,.4c.34-.74,1,0,1.4-1a1,1,0,0,1,.05.23,7.69,7.69,0,0,1-.06-1.28c.19,0,.36-.59.43,0-.12,0-.13.23-.18.42l.2-.26c.18.87-.28.3-.28.95.39-.28.85-1,1.15-.76.06.86-.7.29-.3,1l-.47-.33c.36,1.35-.28-.09,0,1.35.61.25.69-.44,1.3-.19.14-.48,0-.7.09-1.18.87-.85.68,2.15,1.32,1,.17-.57.23-1.65.68-1.08l-.16,1c.59.1.34-1.39,1-.74-.11.38-.47.32-.38.44.4.76.28-.55.59-.55l.06.86c.63-.13,1.33-.75,2-.91,0,.25-.16.52,0,.78.88-.43,1.88.1,2.74.61l.33-.74c.08,0,.14.33.06.48.33.28,0-.47.18-.76.19-.05.25.43.13.65.59-.63,1.67-1.35,2.28-.56l-.12.22c.48.3.54-1.52,1-.83l-.09.13c1,.32,2.19-.36,3,.76.15-1.07,1,.47,1.1-1,.6.74.42,1,1.26,1.5.22.07.33-.93.61-1.08V335l.38-.81.2.93.26-.2a.73.73,0,0,1-.2-.57c.41-.35,1,.54,1,.94l1-.66c0,.31-.18.42-.31.62.51-.79.09.82.56.09a1.73,1.73,0,0,1,0-.62.82.82,0,0,0,1.16.28l-.08.53a15.28,15.28,0,0,0,2.3-.25c-.29-.25-.22-1.18,0-1.27l.09.82c.15-.51-.24-.31.07-.93.3.09.2.93,0,1.2l.36-.28a4.58,4.58,0,0,1-.09.69c.15-.51.63.82.84-.06l0,.24a15.47,15.47,0,0,0,1.81-.32c0-.71.27-.55.46-1.12.48.23,1,.78,1.58.72.4-.35.12-.6.3-1,0,.65.61.58.31,1a3.57,3.57,0,0,0,1.76-.65c-.09-.26-.2-.38-.15-.6s.36.27.34.58l0,.07c1-1,2.27,1.88,3,.54l0,.07.81-.7c.37.11-.22.48.05.88.87-1.08,1.38.16,2.1-.56.56,1.9,2-.13,2.73,1.08l0-.45c.19-.44.24.26.38.36,0-.35-.21-.4-.09-.65,1.65-.54,3.4.66,5.09,1.06.62.12.35-2.32,1.13-1.25l-.22.83c1.25-1,2.55,0,3.77-.81-.07.19-.07.44-.19.44.26.6,1,0,1-.46.19.06,0,.45.16.7s.65-.77.79-.17c0,.1-.07.2-.12.24.17-.29.78.07.62-.62.46.33.88-.31,1.24.1.24-.78.78.38.86-.73,0,1.14.8.92,1.09.38-.1.34.25.36.14.83.33,0,.63-.23.58-.81.61,1.36,1.22-1.1,1.57.65a11.48,11.48,0,0,1,2.77-1.29c0,1.14-1,.11-.94,1.31.84-.47,1.32-1.44,2.15-1.17.21.16-.12.49-.19.69.84-.47,1.62.1,2.36-.52a.55.55,0,0,1-.16.31c.15,0,.34.17.32-.35l-.14.14c-.23-.75.58-1.57.61-2-.25,1.48.74.37.34,2.24a.93.93,0,0,0,.2-.69c.14.1.19.3,0,.7.53-.28.34-.83.81-.82a3.93,3.93,0,0,1-.15.64c.24-.49.48-1,.89-.76,0,.15,0,.35-.1.34.69-.08,1.18-1.3,1.94-.83-.22,1.09.26.36.3,1.3l.41-.28-.16-.46c.36,0,.67-.67,1-.36l-.27.39.67-.18-.38-.36c.36-.48,0-1.19.44-.93-.1.1.36,0,.54.57h0c.18-.3.36-.61.62-.38.07.3-.06,1,0,1.24.17-.79.84-.22,1.06-1.06a2.3,2.3,0,0,0-.05.79l.15-.64c.17.2.19.3.16.7.5.12-.16-1.19.43-.68,0,.05,0,.15-.12.24.59.27,1.15-.41,1.69-.09.16.95-.48.23-.29,1,.79-.17,1.63-1.13,2.39-.91l-.14-.1c.11-1.34.57.66,1,0a1.4,1.4,0,0,0-.1.59c.52.21,1.06-.33,1.85-.75l-.1.34c.31.31.81.18,1.14.33.1-.34.29-.29.17-.79,1,2,1.95-1,2.86.58-.11,0-.26.3-.17.3l.77-.32c-.06-.58-.1-.35-.26-.81.1-.35.32-.61.51-.61-.35.39,0,.94.15,1.26,0-.18,0-.38,0-.56.4,1,.07-1.17.62-.47l0,.31c.21-.16.4-.56.62-.47.09.67-.22.31-.23.87.31,0,.62-1.28.9-.6-.13.19-.32.19-.46.38.31.79.34.59.57.72l0,0,.53.36-.13-.21c.39-1.76.8-.32,1.32-1.47-.51,1.09-.08.63-.12,1.39.13.21.34.45.28.66.25-.62.42.49.77-.42,0,.25.27,0,.21.64.32-.19-.08-.43,0-.74.5-.84,1.17,1,1.89-.13.62-.47.73-1.3,1.31-1.72.19.39-.16.89-.16.89.31.36.55.3.84,0a1.11,1.11,0,0,0,.09.67c.24-.06.16-.89.47-.53a5.84,5.84,0,0,1-.24,1c.28-.23.55-.68.84-.91.08.43-.17.65-.28.93.32-.19.84-.39.94-1.07l-.21-.24c.12,0,.06.58,0,.71-.28.53-.4-.24-.42-.48l.21-.16c-.21-1.44-.82.23-1.24.15l.17-1-.42.87c-.09-.27-.15-.86.05-1-.3-.52-.26.37-.52-.2a.2.2,0,0,1,0-.18l-.29.31c.06-.22,0-.74.13-.59-.52-.6-.84.79-1,0l0-.06c-.72.35-.07.77-.61,1.67l-.36-1.9-.07.77c-.07,0-.22-.09-.19-.39-.28.53,0,.33-.11.83-.36-.7-1,.33-1.07-.9-.13.58.34.45,0,.86-.11-1.32-.44.23-.77-.38.1-.68.41-.32.08-.93-.2,1.15-.64-.25-.91,0,0,.92-.6.38-1.06.69,0-.31-.87-.5-1.3-.83v-.15c-.08.93-.53.75-.85.94a1.59,1.59,0,0,1,.25-1h-.3a.74.74,0,0,1-.36.56l.08-.69c-.4,0-.82.81-1.34.35,0,.65.41,1.8-.14,2.23,0-.35,0-.95.1-1.09,0,0-.17.29-.26.14l.22-.59c-.24-.26-.12.49-.31.44,0-.5-.14-.36-.11-.75,0,0,.17.21.24,0a1.12,1.12,0,0,1-.56-.76c0,.28,0,.67-.16.73-.4,0-.14-.6-.37-.85-.1.35-.36,0-.36.73-.12,0-.14-.35-.19-.55-.21.33-1,.09-.74.88l.05.05,0,0h0c-.69.74-1.43-.42-2.11-.1v-.25c-.41.28-.91.17-1.2.7-.12,0-.28-.45-.23-.75-.31.19-.35.47-.79.06.31-.43-.11-.38.32-.32-.4-.21-.5-.61-.93.07.15-.64-.3-.8-.5-.61l.28.46a.83.83,0,0,1-.6,0l.1-.84c-.83-1-1.49,1.74-2.12,0-.22.59.45.41.25,1.1-.38-.11-.78-1.32-.9-1.32-.52-.46-.49,1.22-1,.91.07.3.14,1.1-.27,1.38-.38-.11-.47-1.25-.23-1.49.09,0,.14.07.13.17a.4.4,0,0,0,.13-.56l0,.3c-.19-.31-.71-.27-.59-.76-.29.28-.12.49.09.65-.49-.43-.76,0-1.26-.3.08.16.15.52.07.51-.74-.37-.32.57-.82.7-.28-.46.1-1.09-.4-.71-.31-.31-.06-.79.06-1-.46.58-.86-.38-1.12-.48l.24-.24a.45.45,0,0,1-.38.14l.14.6c-.14-.1-.26-.11-.26-.36-.15.39.11,1-.18,1.53-.19-.3-.57.33-.64-.47.59.27-.07-.8.44-.93-.1.09-.22.09-.36,0a.24.24,0,0,1,.06-.21c-.57-.71-.26.9-.85.88.07-.45-.14-.85-.23-.75.24,0,.11.75-.1,1.09-.38-.35-.41.26-.61.22l.23.16c-.08.45-.27.39-.53.53,0-.35.24-.24.15-.39-.29.79-.66-.81-1.07-.28-.19-.3,0-.84-.18-1-.46.58-.49-.61-1-.13.14.6.16.45-.18,1l.79-.42-.51.87c.24,0,.5-.38.65-.28-.24.49-.22.34-.1.84-.33-.9-.65.53-1-.08v-1.49c-.57-.66-1,.76-1.74.39l.24.26c-.1.59-.45.08-.69.32a2.1,2.1,0,0,0-.23-1c0,.37-.54,0-.61,1l-.33-.66c-.59-.27-.68,1.42-1.25,1.25.17-.54-.09-.89.3-1.28-.19,0-.36-.1-.37.25-.11-.31-.53.67-.7.2-.08.22-.11.74-.32.7a.77.77,0,0,1,0-.25c0,.25-.33.33-.15.88-.59-1.55-1.64.11-2.15-1.22a5.24,5.24,0,0,1-1.29.36c0-.15,0-.25.07-.2-.52-.46-.32,1.43-.91.91-.3-.8.31-.43.13-.74-.08-1.64-.72.22-1.11-.73l.1-.1c-.3-.56-.74.62-1.24.5a.82.82,0,0,0,0-.25,2.52,2.52,0,0,1-1.46,1.34c.15-.64.22-.34.13-1-.21.09.06,1-.37,1.23a3.25,3.25,0,0,1-.49-1.35l.4,0c-.21-.9-.52,0-.74-.13l0-.39c-.62.13-.63,1.12-1.29,1l.07.3c-.36,1-.31-.55-.67.18l-.11-1a5.88,5.88,0,0,1-1.27,1.15,5.24,5.24,0,0,1,1.06-1.55c-.24,0-.81.07-.93.56.1-.1.22-.34.31-.19-.29.78-.68,1.17-1.15,1.15.08-1.93-1.24-.49-1.58-2-.84.71-1.67-.3-2.64-.19.35,1.5-.29,0-.23,1.58-.23.1-.31.07-.33,0l-.69-.92c-.16-.45.22-.34.2-.69-.5-.12-.21-.65-.54-1.06.07.55-.17.79-.46.58l.4.71c-.7.82-.6-1.29-1.3-.48l.22-.48c-.36.29-1.33,0-1.68,1.23-.06-.18-.15-.6,0-.71-.86-.19-1.92,1.32-2.59.55l.07-.38c-.16.11-.28.71-.48.33,0-.16.06-.38,0-.4-.09.13-.43.66-.64.44l.18-.42c-.84-.49-1.29,1-2,1.29a1.68,1.68,0,0,0-1-1.65v-.16c-1-.14-1.66.92-2.57,1.35-.56-1.2-1.91-.5-2.81-1.18a1.12,1.12,0,0,1-.18,1c-.21-.22-.59.77-.55-.25l.08,0c-.16-1-.6-.73-.94-.76l-.06,1.33c-.89-1.94-2.33.71-2.82-1-.21.33-.48.33-.69.66v-.71a2.52,2.52,0,0,0-1.63-.1l.15-.51c-.42,0-.52,2.06-.91,2.1l-.12-1.06c-.72,0-1.46-.92-2.17,0,0-.16,0-.46.15-.51-.34,0-1.32-.72-1.19.74,0-1-.75-.09-1.14.33l.06-.7c-.33.9-.34,1.14-.8,1.39-.11-.09-.1-.56,0-.38-.36-.37-.28.66-.73.29l.16-.45c-.37-.05-.34.19-.55.71-.24.28-.71-.18-.77-.81-.05.39-.26.9-.48.72a.71.71,0,0,1,.09-.46c-.63-.48-.93.82-1.36.13a1,1,0,0,0-.07-.42c.5,0,.9.06.86.11,0-.65-.4-.76-.08-1.65-.32.49-.87,1.55-1.27,1.24a1.35,1.35,0,0,1-.05-.22l0-.07c-.09-.06-.17,0-.25.1-.12-.11-.2-.19-.32-.19,0-.54-.46-.29-.66-.31,0,.71-.25.59,0,1.18,0-.05,0-.08.17-.11s.07,0,.09-.07v.06l.5,0c-.16.36-.32.66-.55.27-.1.46-.22.92-.28,1.14-.27-1-.8-1.52-.88-2.13-.61.4-1.44.26-1.83,1.59-.17.17-.2-.38-.27-.59.1-.13.22-.11.27-.3-.35.34-1,.13-1.11,1.06-.44-.42.25-.86-.36-.7l.08-.28c-1.19-1.49-1.93,2.37-3.24.47a.55.55,0,0,1,.16.33c-1.5-.84-3.09.79-4.56-.54-.42-.27-.47.32-.72.78l-.09-.76-.44.88c-.62.64-1.08-1.87-1.86-.65l.1.51c-.28-.1-.9.3-.85-.29,0,.09-.09.53-.2.27v-.4l-.69.68c-.54-.29.08-1.58-.7-1.66-.29.15-.83,1.16-.72,1.43.12,0,.3.25.31.65l-.27.21c0,1.17-.25,2.37.4,3.19l.46-.72.15.57-.38,0c.22.54.36.06.51-.26a1.31,1.31,0,0,0,.19.63l.45-1.12c.05.46-.2.91.1,1.16.21-.52-.2-1,.15-1.37.22.53.15,1,.41.51a.83.83,0,0,1-.12.63c.23-.36.6-.15.72-.78.23.66.77-.17.75.94.07-.27.4-.87.61-.92-.38,1.33.79.08.68,1.5.28-1.2,1-.53,1.53-1.19,0,.09-.08.29-.13.23.28.1.36.46.55.69,0-1,.48-1.21.71-1.82.35,1-.21,1.16-.1,2.07,0-.8.6-.8.48-1.47a2.33,2.33,0,0,1,.36,1.1c0-1.23.25-.21.47-1,.38.61.1,1.16.52.78C209.15,335.55,208.78,336,208.78,336Zm10-2.13h0l-.21,0Zm.84,0a1.28,1.28,0,0,0-.37,0c0-.24,0-.5.09-.48C219.32,333.5,219.51,333.64,219.64,333.85Zm-1.78-4.91c.13-.1.18,0,.2.18a.9.9,0,0,0-.23.08l0,.09A2.29,2.29,0,0,1,217.86,328.94Z"/><path class="cls-8" d="M217.62,329.87s0,0-.06.05l.08.16,0-.22Z"/><path class="cls-8" d="M293.94,330.92l0,0a.34.34,0,0,1,0,.1S293.95,330.94,293.94,330.92Z"/><polygon class="cls-8" points="231.27 335.2 231.26 335.02 231.19 335.18 231.27 335.2"/><path class="cls-8" d="M298.58,333.35a.46.46,0,0,0,.06.18A.6.6,0,0,0,298.58,333.35Z"/><path class="cls-8" d="M300.58,333.51l.28.25A1.08,1.08,0,0,0,300.58,333.51Z"/><path class="cls-8" d="M302.12,333.86a2.92,2.92,0,0,0,0-.3h0Z"/><path class="cls-8" d="M277.63,334.69l-.06,0C277.44,334.86,277.53,334.8,277.63,334.69Z"/><path class="cls-8" d="M284.92,333a1.81,1.81,0,0,1-.23.33C284.82,333.42,284.92,333.44,284.92,333Z"/><path class="cls-8" d="M269.5,335.54h0Z"/><path class="cls-8" d="M284.35,333.36a.2.2,0,0,0,.34,0C284.58,333.32,284.46,333.25,284.35,333.36Z"/><path class="cls-8" d="M308.8,334.18l.07,0a.52.52,0,0,1,0-.11Z"/><path class="cls-8" d="M308.88,334.09,309,334S308.89,334,308.88,334.09Z"/><path class="cls-8" d="M309.14,333.83,309,334C309,334,309.1,334,309.14,333.83Z"/><path class="cls-8" d="M306.76,333.85l0,.26A1.31,1.31,0,0,0,306.76,333.85Z"/><path class="cls-8" d="M306.14,333.93c.15.06.37.55.58.39l0-.2C306.64,334.49,306.28,333.49,306.14,333.93Z"/><path class="cls-8" d="M303.55,330.75l.52.21c-.09-.27-.21-.64,0-.71C303.44,329.43,304.23,330.86,303.55,330.75Z"/><path class="cls-8" d="M301.94,330.35c.28-.13,0-.4,0-.55C301.78,330.05,301.73,330.11,301.94,330.35Z"/><path class="cls-8" d="M290.31,330.35l0-.64C290.12,329.8,290.34,330,290.31,330.35Z"/><polygon class="cls-8" points="288.09 333.68 288.3 334.08 288.39 333.49 288.09 333.68"/><polygon class="cls-8" points="286.77 329.09 286.87 329 286.51 329.23 286.77 329.09"/><path class="cls-8" d="M267.23,329.32l.06.79C267.44,330,267.47,329.08,267.23,329.32Z"/><path class="cls-8" d="M258.8,330.13c-.09-.4-.33-.65-.48-.26C258.51,329.92,258.7,330.23,258.8,330.13Z"/><polygon class="cls-8" points="233.5 328.84 233.67 328.57 233.35 328.79 233.5 328.84"/><line class="cls-9" x1="301.45" y1="171.02" x2="301.45" y2="397.33"/><path class="cls-10" d="M180.22,247.29c40.83,0,73.94,35.64,73.94,79.61"/><path class="cls-11" d="M178.17,397.33a75.12,75.12,0,0,1-2.52-150.19"/><path class="cls-12" d="M229.28,377.29a74.85,74.85,0,0,1-51.11,20"/><path class="cls-12" d="M254.16,326.9c-.51,20.28-10.19,38.31-25.29,50.76"/><path class="cls-12" d="M175.65,247.14c.84,0,1.69,0,2.52,0a74.81,74.81,0,0,1,49.09,18.24"/><line class="cls-12" x1="257.41" y1="335.75" x2="163.86" y2="335.75"/><path class="cls-13" d="M472.56,246.19A75.16,75.16,0,1,1,397.41,171,75.16,75.16,0,0,1,472.56,246.19Z"/><path class="cls-8" d="M519.72,250.55c.1-.22,0-.71-.23-.61l-.19.83Z"/><path class="cls-8" d="M517.92,249a2.21,2.21,0,0,0-.48,1.88c.31-.8.39-.47.73-1.42.27-.1.47.27.42.57.1-.21.42.18.56-.34-.35-.65-.79-.67-1.26-.14C517.8,249.38,517.89,249.16,517.92,249Z"/><path class="cls-8" d="M491.66,247.71l.17.1A.3.3,0,0,0,491.66,247.71Z"/><path class="cls-8" d="M475.4,247.25a.2.2,0,0,0,.18-.18C475.46,247.12,475.37,247.18,475.4,247.25Z"/><path class="cls-8" d="M472.62,246.33l.16.06C472.72,246.31,472.66,246.27,472.62,246.33Z"/><path class="cls-8" d="M491.66,247.71l-.43-.26C491.2,247.72,491.45,247.65,491.66,247.71Z"/><path class="cls-8" d="M514.3,251a.59.59,0,0,0,.24-.22l-.22.09S514.3,251,514.3,251Z"/><path class="cls-8" d="M498.83,247H499a2.84,2.84,0,0,0,.11-.34Z"/><path class="cls-8" d="M504.34,246.9c-.12,0-.17.68-.22,1,.07-.29.16-.43.27-.49A2.35,2.35,0,0,0,504.34,246.9Z"/><path class="cls-8" d="M513.06,248.15l.15-.1Z"/><path class="cls-8" d="M494.89,246.88a1,1,0,0,0-.05-.25A.71.71,0,0,0,494.89,246.88Z"/><path class="cls-8" d="M341,252.2c0-.05,0-.08,0-.13S340.93,252.19,341,252.2Z"/><path class="cls-8" d="M334.6,248.69l.09,0c0-.13,0-.27,0-.4Z"/><path class="cls-8" d="M467.54,245.42h0C467.69,245.35,467.62,245.37,467.54,245.42Z"/><path class="cls-8" d="M420.88,245.94c.53.63-.86.81-.06,1.52C420.74,247.18,421.54,246.36,420.88,245.94Z"/><path class="cls-8" d="M514.15,250.92h-.23A.32.32,0,0,0,514.15,250.92Z"/><path class="cls-8" d="M420.81,247.46h0l.08.07Z"/><path class="cls-8" d="M455.83,245.85a1,1,0,0,0,.12.31A.69.69,0,0,0,455.83,245.85Z"/><path class="cls-8" d="M464.55,246.85l-.22-.09A.44.44,0,0,0,464.55,246.85Z"/><path class="cls-8" d="M451.3,246.85c-.12-.05-.16-.15-.32-.06l0,.09C451.09,246.78,451.16,246.73,451.3,246.85Z"/><path class="cls-8" d="M446.58,246.85a1.37,1.37,0,0,0,.09.14l.15,0Z"/><path class="cls-8" d="M355.3,251.86a2.7,2.7,0,0,1-.22-.64C355.16,251.72,354.47,251.9,355.3,251.86Z"/><path class="cls-8" d="M514.29,250.62c0,.18-.07.27-.14.31l.16,0A.48.48,0,0,0,514.29,250.62Z"/><path class="cls-8" d="M451.1,252.43l-.75-.1A2.51,2.51,0,0,0,451.1,252.43Z"/><path class="cls-8" d="M389.13,251.76l-.17.08A.14.14,0,0,0,389.13,251.76Z"/><path class="cls-8" d="M448.13,252.43a1.26,1.26,0,0,0-.42-.49.66.66,0,0,0-.09.18Z"/><path class="cls-8" d="M355.09,251.21h0Z"/><path class="cls-8" d="M350.15,252.9c.71,0,.34-.91.49-1.44.85-.26.39.68.68,1.16.53-.25.94-1.1,1.34-1.06,0,.15.11.21,0,.4.56-.74,1.67,0,2.32-1a.68.68,0,0,1,.09.23,4.65,4.65,0,0,1-.1-1.28c.32,0,.59-.59.71,0-.2,0-.21.23-.3.42l.34-.26c.3.87-.46.3-.46.95.65-.28,1.42-1,1.92-.76.1.86-1.17.29-.5,1l-.78-.33c.59,1.35-.47-.09.07,1.35,1,.25,1.14-.44,2.16-.19.23-.48-.08-.7.15-1.18,1.45-.85,1.14,2.15,2.2,1,.28-.57.38-1.65,1.14-1.08l-.26,1c1,.1.56-1.39,1.6-.74-.18.38-.78.32-.63.44.67.76.47-.55,1-.55l.11.86c1.05-.13,2.21-.75,3.37-.91-.06.25-.26.52,0,.78a7.7,7.7,0,0,1,4.55.61l.54-.74c.13,0,.23.33.1.48.55.28,0-.47.29-.76.31-.05.42.43.22.65,1-.63,2.78-1.35,3.8-.56l-.2.22c.8.3.9-1.52,1.64-.83l-.14.13c1.73.32,3.65-.36,5,.76.25-1.07,1.72.47,1.83-1,1,.74.71,1,2.1,1.5.37.07.56-.93,1-1.08v.78l.63-.81.33.93.43-.2a.61.61,0,0,1-.34-.57c.67-.35,1.65.54,1.66.94l1.6-.66c0,.31-.3.42-.51.62.85-.79.15.82.94.09-.1-.18.06-.46.07-.62a1.94,1.94,0,0,0,1.93.28l-.13.53c1.18.14,2.5-.26,3.83-.25-.48-.25-.37-1.18,0-1.27l.16.82c.25-.51-.41-.31.11-.93.5.09.33.93,0,1.2l.6-.28c0,.24-.11.37-.14.69.25-.51,1,.82,1.4-.06l0,.24c1.33,0,1.93-.28,3-.32,0-.71.44-.55.77-1.12a7.85,7.85,0,0,0,2.64.72c.67-.35.2-.6.5-1,0,.65,1,.59.51,1a8.73,8.73,0,0,0,2.92-.65c-.16-.26-.34-.38-.24-.6.26-.11.6.27.56.58l-.07.07c1.63-1,3.77,1.88,5.07.54l-.07.07,1.35-.7c.62.11-.37.48.09.88,1.45-1.08,2.3.16,3.5-.56.93,1.9,3.29-.13,4.54,1.08l-.07-.45c.32-.44.39.26.63.36,0-.35-.35-.4-.15-.65,2.74-.54,5.66.66,8.47,1.06,1,.12.58-2.32,1.88-1.25l-.37.83c2.07-1,4.24,0,6.27-.81-.12.19-.12.44-.32.44.43.6,1.59,0,1.59-.46.32.06.07.45.27.7.43.36,1.08-.77,1.31-.17,0,.1-.12.2-.2.24.28-.29,1.31.07,1-.62.76.33,1.46-.31,2.07.1.4-.78,1.3.38,1.43-.73-.05,1.14,1.34.92,1.82.38-.16.34.42.36.23.83.55,0,1.05-.23,1-.81,1,1.36,2-1.1,2.61.65a26.48,26.48,0,0,1,4.61-1.29c-.05,1.14-1.62.11-1.56,1.31,1.39-.47,2.2-1.44,3.58-1.17.36.16-.2.49-.32.69,1.39-.47,2.69.1,3.93-.52,0,.11-.14.22-.26.31.24,0,.57.17.54-.35l-.24.14c-.39-.75,1-1.57,1-2-.41,1.48,1.22.37.57,2.24a.72.72,0,0,0,.33-.69c.24.1.31.3.07.7.87-.28.56-.83,1.36-.82,0,.25-.16.35-.24.64.4-.49.8-1,1.47-.76,0,.15,0,.35-.16.34,1.15-.08,2-1.3,3.22-.83-.37,1.09.43.36.5,1.3l.68-.28-.27-.46c.59,0,1.12-.67,1.63-.36l-.44.39,1.11-.18-.63-.36c.6-.48-.06-1.19.73-.93-.16.1.59,0,.9.57h0c.29-.3.6-.61,1-.38.11.3-.09,1,0,1.24.29-.79,1.39-.22,1.76-1.06a1.41,1.41,0,0,0-.09.79l.24-.64c.28.2.32.3.27.7.83.12-.26-1.19.72-.68-.08.05,0,.15-.2.24,1,.27,1.91-.41,2.81-.09.27.95-.79.23-.49,1,1.31-.17,2.71-1.13,4-.91l-.24-.1c.18-1.34.94.66,1.58,0-.16.1-.21.74-.16.59.87.21,1.77-.33,3.08-.75l-.16.34c.51.31,1.34.18,1.9.33.16-.34.48-.29.29-.79,1.7,2,3.24-1,4.75.58-.18,0-.43.3-.29.3l1.29-.32c-.1-.58-.17-.35-.44-.81a1,1,0,0,1,.84-.61c-.58.39,0,.94.25,1.26,0-.18,0-.38,0-.56.67,1,.11-1.17,1-.47l0,.31c.34-.16.66-.56,1-.47.15.67-.37.31-.39.87.52,0,1-1.28,1.5-.6-.22.19-.54.19-.76.38.51.79.57.59,1,.72l0,0,.88.36-.22-.21c.65-1.76,1.32-.32,2.2-1.47-.85,1.09-.14.63-.21,1.39.22.21.56.45.47.66.41-.62.69.49,1.28-.42,0,.25.44,0,.35.64.54-.19-.13-.43-.08-.74.83-.84,2,1,3.14-.13,1-.47,1.22-1.3,2.17-1.72.32.39-.26.89-.26.89a1.14,1.14,0,0,0,1.4,0c-.1.21,0,.4.15.67.39-.06.26-.89.78-.53a4,4,0,0,1-.39,1c.46-.23.92-.68,1.4-.91.13.43-.29.65-.46.93.54-.19,1.4-.39,1.56-1.07l-.35-.24c.2,0,.1.58,0,.71-.46.53-.67-.24-.69-.48l.34-.16c-.35-1.44-1.37.23-2.06.15l.29-1-.71.87c-.15-.27-.25-.86.09-1-.49-.52-.44.37-.86-.2a.13.13,0,0,1,0-.18l-.48.31c.09-.22-.08-.74.22-.59-.86-.6-1.39.79-1.72,0l.07-.06c-1.2.35-.12.77-1,1.67l-.61-1.9-.12.77c-.12,0-.37-.09-.32-.39-.46.53.08.33-.19.83-.6-.7-1.64.33-1.78-.9-.21.58.57.45-.07.86-.18-1.32-.74.23-1.28-.38.17-.68.68-.32.14-.93-.33,1.15-1.06-.25-1.52,0,0,.92-1,.38-1.77.69,0-.31-1.45-.5-2.17-.83l0-.15c-.14.93-.88.75-1.42.94a1.16,1.16,0,0,1,.41-1H499a.86.86,0,0,1-.61.56l.13-.69c-.67,0-1.36.81-2.22.35,0,.65.69,1.8-.23,2.23,0-.35-.07-.95.17-1.09-.08,0-.28.29-.44.14l.37-.59c-.39-.26-.21.49-.52.44,0-.5-.23-.35-.19-.75.08,0,.28.21.4,0a1.41,1.41,0,0,1-.93-.76c0,.28,0,.67-.26.73-.67,0-.23-.6-.62-.85-.16.35-.59,0-.6.73-.2,0-.23-.35-.31-.55-.35.33-1.63.09-1.24.88l.09.05-.06,0h0c-1.14.74-2.37-.42-3.51-.1v-.25c-.68.28-1.51.17-2,.7-.2,0-.47-.45-.39-.75-.52.19-.58.47-1.32.06.52-.43-.18-.38.53-.32-.67-.21-.82-.61-1.55.07.25-.64-.51-.8-.83-.61l.47.46a2.25,2.25,0,0,1-1,0l.17-.84c-1.38-1-2.48,1.74-3.53,0-.36.59.75.41.42,1.1-.63-.11-1.29-1.32-1.49-1.32-.87-.46-.81,1.22-1.72.91a1.06,1.06,0,0,1-.45,1.38c-.63-.11-.78-1.25-.38-1.49.15,0,.23.07.22.17.2-.11.47-.24.22-.56l-.08.3c-.31-.31-1.19-.27-1-.76-.48.28-.2.49.15.65-.81-.43-1.27,0-2.1-.3.13.16.26.52.12.51-1.23-.37-.54.57-1.37.7-.47-.46.17-1.09-.67-.71-.51-.31-.11-.79.09-1-.76.58-1.42-.38-1.86-.48l.4-.24a1.08,1.08,0,0,1-.64.14l.23.6c-.24-.1-.44-.11-.43-.36-.24.39.19,1-.3,1.53-.31-.3-1,.33-1.07-.47,1,.27-.11-.8.73-.93a.63.63,0,0,1-.59,0c0-.09,0-.16.1-.21-.95-.71-.43.9-1.41.88.12-.45-.23-.85-.39-.75.39,0,.19.75-.17,1.09-.63-.35-.68.26-1,.22l.38.16c-.13.45-.44.39-.88.53,0-.35.4-.24.24-.39-.49.79-1.1-.81-1.78-.28-.31-.3,0-.84-.31-1-.76.58-.82-.61-1.62-.13.23.6.27.45-.29,1l1.31-.42-.84.87c.4,0,.84-.38,1.07-.28-.4.49-.36.34-.17.84-.54-.9-1.08.53-1.7-.08l0-1.49c-.94-.66-1.67.76-2.9.39l.39.26c-.16.59-.76.08-1.15.32,0-.5-.21-.68-.38-1,0,.37-.9,0-1,1l-.55-.66c-1-.27-1.13,1.42-2.08,1.25.29-.54-.15-.89.49-1.28-.32,0-.6-.1-.61.25-.19-.31-.88.67-1.17.2-.13.22-.18.74-.53.7a.47.47,0,0,1,0-.25c0,.25-.56.33-.25.88-1-1.55-2.73.11-3.58-1.22a13.48,13.48,0,0,1-2.15.36c0-.15,0-.25.12-.2-.87-.46-.53,1.43-1.52.91-.5-.8.52-.43.21-.74-.14-1.64-1.19.22-1.85-.73l.16-.1c-.51-.56-1.24.62-2.07.5a.5.5,0,0,0,0-.25,4.16,4.16,0,0,1-2.44,1.34c.25-.64.36-.34.21-1-.36.09.1,1-.61,1.23-.23-.35-.75-.66-.81-1.35l.67,0c-.34-.9-.87,0-1.23-.13l0-.39c-1,.13-1,1.12-2.15,1l.11.3c-.61,1-.51-.55-1.11.18l-.18-1a9.75,9.75,0,0,1-2.12,1.15c.41-.74,1.24-1.11,1.76-1.55-.4,0-1.35.07-1.55.56.16-.1.36-.34.52-.19a2.13,2.13,0,0,1-1.92,1.15c.14-1.93-2.06-.49-2.63-2-1.4.71-2.77-.3-4.4-.19.58,1.5-.48,0-.38,1.58-.38.1-.52.07-.56,0l-1.15-.92c-.27-.45.36-.34.33-.69-.83-.12-.35-.65-.9-1.06.11.55-.29.79-.76.58l.67.71c-1.16.82-1-1.29-2.17-.48l.37-.48c-.6.29-2.21,0-2.8,1.23-.11-.18-.25-.6,0-.71-1.43-.19-3.19,1.32-4.31.55l.11-.38c-.27.11-.47.71-.8.33,0-.16.11-.38,0-.4-.14.13-.71.66-1.06.44l.3-.42c-1.4-.49-2.15,1-3.32,1.29,0-1.11-1.1-1.47-1.65-1.65l0-.16c-1.63-.14-2.77.92-4.27,1.35-.94-1.2-3.17-.5-4.67-1.18.23.2,0,.86-.3,1-.35-.22-1,.77-.92-.25l.13,0c-.27-1-1-.73-1.56-.76l-.09,1.33c-1.48-1.94-3.88.71-4.69-1-.36.33-.8.33-1.15.66l0-.71a6.84,6.84,0,0,0-2.71-.1l.25-.51c-.69,0-.87,2.06-1.51,2.1l-.19-1.06c-1.2,0-2.42-.92-3.62,0,0-.16.06-.46.25-.51-.57,0-2.19-.72-2,.74,0-1-1.24-.09-1.89.33l.1-.7c-.55.9-.57,1.14-1.33,1.39-.18-.09-.16-.56.08-.38-.61-.37-.47.66-1.21.29l.27-.45c-.62-.05-.57.19-.92.71-.39.28-1.18-.18-1.27-.81-.08.39-.43.9-.79.72a.5.5,0,0,1,.15-.46c-1-.48-1.55.82-2.27.13a.7.7,0,0,0-.12-.42,5.44,5.44,0,0,1,1.43.11c0-.65-.67-.76-.14-1.65-.54.49-1.45,1.55-2.11,1.24a.92.92,0,0,1-.09-.22l.07-.07a.38.38,0,0,0-.41.1,1.26,1.26,0,0,0-.54-.19c-.08-.54-.77-.29-1.1-.31,0,.71-.41.59,0,1.18-.05-.05.06-.08.28-.11a.33.33,0,0,0,.14-.07l0,.06.83,0c-.26.36-.54.66-.91.27-.17.46-.36.92-.47,1.14-.46-1-1.34-1.52-1.46-2.13-1,.4-2.4.26-3,1.59-.29.17-.33-.38-.44-.59.17-.13.37-.11.46-.3-.58.34-1.71.13-1.85,1.06-.73-.42.41-.86-.59-.7l.14-.28c-2-1.49-3.21,2.37-5.39.47.15.12.23.17.26.33-2.49-.84-5.14.79-7.6-.54-.7-.27-.77.32-1.2.78l-.15-.76-.73.88c-1,.64-1.79-1.87-3.1-.65l.17.51c-.47-.1-1.49.3-1.41-.29,0,.09-.15.53-.34.27v-.4L337,248c-.9-.29.14-1.58-1.17-1.66-.49.15-1.38,1.16-1.2,1.43a.66.66,0,0,1,.52.65l-.44.21c-.08,1.17-.42,2.37.67,3.19l.76-.72.24.57-.64,0c.36.54.59.06.85-.26a1,1,0,0,0,.32.63l.75-1.12c.09.46-.33.91.17,1.16.35-.52-.34-1,.24-1.37.36.53.26,1,.68.51a.58.58,0,0,1-.2.63c.38-.36,1-.15,1.2-.78.38.66,1.28-.17,1.25.94.12-.27.67-.87,1-.92-.64,1.33,1.31.08,1.14,1.5.47-1.2,1.7-.53,2.54-1.19,0,.09-.14.29-.21.23.47.1.61.46.91.69.06-1,.79-1.21,1.19-1.82.58,1-.35,1.16-.17,2.07,0-.8,1-.8.81-1.47.44.59.38.29.61,1.1.08-1.23.41-.21.78-1,.64.61.16,1.16.87.78C350.77,252.46,350.15,252.9,350.15,252.9Zm16.67-2.13h0l-.34,0Zm1.4,0a3.52,3.52,0,0,0-.61,0c0-.24,0-.5.15-.48C367.68,250.4,368,250.54,368.22,250.75Zm-3-4.91c.22-.1.3,0,.33.18a2.22,2.22,0,0,0-.39.08l0,.09A1.46,1.46,0,0,1,365.26,245.84Z"/><path class="cls-8" d="M364.86,246.77s0,0-.09.05l.13.16.08-.22Z"/><path class="cls-8" d="M491.86,247.82l0,0a.27.27,0,0,1,.06.1A.62.62,0,0,1,491.86,247.82Z"/><polygon class="cls-8" points="387.57 252.11 387.57 251.93 387.44 252.08 387.57 252.11"/><path class="cls-8" d="M499.58,250.25a.36.36,0,0,0,.1.18A.46.46,0,0,0,499.58,250.25Z"/><path class="cls-8" d="M502.91,250.41l.47.25A1.84,1.84,0,0,0,502.91,250.41Z"/><path class="cls-8" d="M505.47,250.76a1.8,1.8,0,0,0,.05-.3h0Z"/><path class="cls-8" d="M464.73,251.59l-.1,0C464.4,251.76,464.55,251.71,464.73,251.59Z"/><path class="cls-8" d="M476.85,249.94a2.18,2.18,0,0,1-.39.33C476.68,250.33,476.85,250.34,476.85,249.94Z"/><path class="cls-8" d="M451.19,252.45h0Z"/><path class="cls-8" d="M475.9,250.26a.49.49,0,0,0,.56,0A.71.71,0,0,0,475.9,250.26Z"/><path class="cls-8" d="M516.58,251.08l.12,0a.32.32,0,0,1,0-.11Z"/><path class="cls-8" d="M516.72,251l.14-.08C516.79,250.91,516.74,250.92,516.72,251Z"/><path class="cls-8" d="M517.14,250.74l-.29.18C517,250.92,517.08,250.94,517.14,250.74Z"/><path class="cls-8" d="M513.19,250.76l0,.26A.81.81,0,0,0,513.19,250.76Z"/><path class="cls-8" d="M512.16,250.83c.25.06.62.55,1,.39l0-.2C513,251.39,512.39,250.4,512.16,250.83Z"/><path class="cls-8" d="M507.85,247.65l.86.21c-.15-.27-.35-.64,0-.71C507.67,246.34,509,247.77,507.85,247.65Z"/><path class="cls-8" d="M505.18,247.26c.46-.13,0-.4,0-.55C504.9,247,504.83,247,505.18,247.26Z"/><path class="cls-8" d="M485.82,247.26l0-.64C485.51,246.7,485.86,246.86,485.82,247.26Z"/><polygon class="cls-8" points="482.12 250.59 482.46 250.99 482.63 250.4 482.12 250.59"/><polygon class="cls-8" points="479.93 246 480.09 245.9 479.49 246.14 479.93 246"/><path class="cls-8" d="M447.42,246.22l.11.79C447.77,246.88,447.82,246,447.42,246.22Z"/><path class="cls-8" d="M433.38,247c-.15-.4-.55-.65-.79-.26C432.91,246.83,433.22,247.14,433.38,247Z"/><polygon class="cls-8" points="391.29 245.74 391.57 245.47 391.04 245.7 391.29 245.74"/><path class="cls-8" d="M164.07,333.65c.05-.22,0-.71-.12-.61l-.1.83Z"/><path class="cls-8" d="M163.13,332.1a3.81,3.81,0,0,0-.25,1.88c.16-.8.2-.47.38-1.42.14-.1.24.27.22.57,0-.21.22.18.29-.34-.18-.65-.41-.67-.65-.14A1.62,1.62,0,0,1,163.13,332.1Z"/><path class="cls-8" d="M149.53,330.8l.09.1A.17.17,0,0,0,149.53,330.8Z"/><path class="cls-8" d="M141.1,330.34c.06,0,.09-.1.09-.18S141.09,330.27,141.1,330.34Z"/><path class="cls-8" d="M139.66,329.42l.08.06C139.72,329.4,139.68,329.36,139.66,329.42Z"/><path class="cls-8" d="M149.53,330.8l-.23-.26C149.29,330.81,149.42,330.74,149.53,330.8Z"/><path class="cls-8" d="M161.26,334.11a.53.53,0,0,0,.12-.22l-.11.09S161.26,334.07,161.26,334.11Z"/><path class="cls-8" d="M153.25,330.13h.07c0-.09,0-.21.06-.34Z"/><path class="cls-8" d="M156.1,330a4,4,0,0,0-.11,1,.91.91,0,0,1,.14-.49A4.5,4.5,0,0,0,156.1,330Z"/><path class="cls-8" d="M160.62,331.24l.08-.1Z"/><path class="cls-8" d="M151.21,330a1.88,1.88,0,0,0,0-.25A1.31,1.31,0,0,0,151.21,330Z"/><path class="cls-8" d="M71.46,335.29c0-.05,0-.08,0-.13S71.43,335.29,71.46,335.29Z"/><path class="cls-8" d="M68.15,331.79l0,0c0-.13,0-.27,0-.4Z"/><path class="cls-8" d="M137,328.52h0C137.11,328.45,137.07,328.46,137,328.52Z"/><path class="cls-8" d="M112.85,329c.27.63-.45.81,0,1.52C112.78,330.28,113.2,329.45,112.85,329Z"/><path class="cls-8" d="M161.18,334h-.12C161.12,334.05,161.16,334,161.18,334Z"/><path class="cls-8" d="M112.82,330.56h0l0,.07Z"/><path class="cls-8" d="M131,328.94a1.73,1.73,0,0,0,.06.31A1.15,1.15,0,0,0,131,328.94Z"/><path class="cls-8" d="M135.48,330l-.11-.09A.2.2,0,0,0,135.48,330Z"/><path class="cls-8" d="M128.62,329.94c-.06-.05-.08-.15-.16-.06l0,.09C128.51,329.88,128.55,329.83,128.62,329.94Z"/><path class="cls-8" d="M126.17,329.95c0,.05,0,.09,0,.14l.08,0Z"/><path class="cls-8" d="M78.88,335a4.61,4.61,0,0,1-.11-.64C78.8,334.82,78.45,335,78.88,335Z"/><path class="cls-8" d="M161.26,333.72c0,.18,0,.27-.07.31l.08,0A.92.92,0,0,0,161.26,333.72Z"/><path class="cls-8" d="M128.52,335.53l-.39-.1A.74.74,0,0,0,128.52,335.53Z"/><path class="cls-8" d="M96.41,334.85l-.09.08S96.38,334.93,96.41,334.85Z"/><path class="cls-8" d="M127,335.53a1.35,1.35,0,0,0-.22-.49,1,1,0,0,0,0,.18Z"/><path class="cls-8" d="M78.77,334.31h0Z"/><path class="cls-8" d="M76.21,336c.37,0,.17-.91.25-1.44.44-.26.2.68.35,1.16.28-.25.49-1.1.69-1.06a.86.86,0,0,1,0,.4c.29-.74.87,0,1.2-1a1.13,1.13,0,0,1,0,.23,8.9,8.9,0,0,1-.05-1.28c.17,0,.31-.59.37,0-.1,0-.11.23-.16.42l.17-.26c.16.87-.24.3-.24.95.34-.28.73-1,1-.76.05.86-.61.29-.26,1l-.4-.33c.31,1.35-.24-.09,0,1.35.53.25.59-.44,1.12-.19.12-.48,0-.7.08-1.18.75-.85.59,2.15,1.14,1,.14-.57.2-1.65.59-1.08L82,335c.51.1.29-1.39.83-.74-.1.38-.4.32-.32.44.35.76.25-.55.51-.55l.06.86c.54-.13,1.14-.75,1.75-.91a1.21,1.21,0,0,0,0,.78c.76-.43,1.62.1,2.36.61l.28-.74c.07,0,.12.33.05.48.29.28,0-.47.15-.76.16-.05.22.43.11.65.5-.63,1.44-1.35,2-.56l-.1.22c.41.3.47-1.52.85-.83l-.07.13c.9.32,1.89-.36,2.58.76.13-1.07.89.47.95-1,.51.74.37,1,1.09,1.5.19.07.29-.93.53-1.08V335l.32-.81.17.93.22-.2a.8.8,0,0,1-.18-.57c.35-.35.85.54.86.94l.83-.66a1.19,1.19,0,0,1-.27.62c.44-.79.08.82.48.09a2,2,0,0,1,0-.62.66.66,0,0,0,1,.28l-.07.53c.61.14,1.29-.26,2-.25-.25-.25-.19-1.18,0-1.27l.08.82c.13-.51-.21-.31.06-.93.26.09.17.93,0,1.2l.31-.28a5.28,5.28,0,0,1-.07.69c.13-.51.54.82.73-.06l0,.24a11.69,11.69,0,0,0,1.56-.32c0-.71.23-.55.4-1.12.41.23.87.78,1.37.72.35-.35.1-.6.26-1,0,.65.52.58.26,1a2.82,2.82,0,0,0,1.52-.65c-.08-.26-.17-.38-.13-.6s.31.27.29.58l0,.07c.85-1,2,1.88,2.63.54l0,.07.7-.7c.32.11-.19.48,0,.88.75-1.08,1.19.16,1.81-.56.48,1.9,1.7-.13,2.35,1.08l0-.45c.17-.44.2.26.33.36,0-.35-.18-.4-.08-.65,1.42-.54,2.93.66,4.39,1.06.53.12.3-2.32,1-1.25l-.19.83c1.07-1,2.2,0,3.25-.81-.06.19-.06.44-.17.44.22.6.82,0,.83-.46.16.06,0,.45.14.7s.56-.77.68-.17a.32.32,0,0,1-.1.24c.15-.29.68.07.54-.62.39.33.76-.31,1.07.1.21-.78.68.38.74-.73,0,1.14.69.92.94.38-.08.34.22.36.12.83.28,0,.55-.23.5-.81.52,1.36,1.05-1.1,1.35.65a9.33,9.33,0,0,1,2.39-1.29c0,1.14-.84.11-.81,1.31.72-.47,1.14-1.44,1.85-1.17.19.16-.11.49-.17.69.72-.47,1.39.1,2-.52a.59.59,0,0,1-.14.31c.13,0,.29.17.28-.35l-.12.14c-.2-.75.5-1.57.53-2-.21,1.48.63.37.29,2.24a1,1,0,0,0,.17-.69c.12.1.16.3,0,.7.45-.28.29-.83.7-.82a4.47,4.47,0,0,1-.13.64c.21-.49.42-1,.76-.76,0,.15,0,.35-.08.34.6-.08,1-1.3,1.67-.83-.19,1.09.22.36.26,1.3l.35-.28-.14-.46c.31,0,.58-.67.84-.36l-.23.39.58-.18-.33-.36c.31-.48,0-1.19.38-.93-.08.1.31,0,.47.57h0c.15-.3.31-.61.54-.38.06.3,0,1,0,1.24.15-.79.72-.22.91-1.06a2.66,2.66,0,0,0,0,.79l.13-.64c.14.2.16.3.14.7.43.12-.14-1.19.37-.68,0,.05,0,.15-.1.24.51.27,1-.41,1.46-.09.14.95-.41.23-.25,1,.68-.17,1.4-1.13,2.06-.91l-.12-.1c.09-1.34.49.66.82,0a1.61,1.61,0,0,0-.08.59c.45.21.92-.33,1.6-.75l-.08.34c.26.31.7.18,1,.33.08-.34.25-.29.15-.79.88,2,1.68-1,2.46.58-.09,0-.22.3-.15.3l.67-.32c-.05-.58-.09-.35-.23-.81.08-.35.27-.61.44-.61-.3.39,0,.94.13,1.26,0-.18,0-.38,0-.56.35,1,.06-1.17.53-.47l0,.31c.18-.16.34-.56.53-.47.08.67-.19.31-.2.87.27,0,.53-1.28.78-.6-.11.19-.28.19-.39.38.27.79.3.59.49.72l0,0,.46.36-.12-.21c.34-1.76.69-.32,1.14-1.47-.44,1.09-.07.63-.11,1.39.12.21.29.45.24.66.21-.62.36.49.66-.42,0,.25.23,0,.18.64.28-.19-.07-.43,0-.74.43-.84,1,1,1.63-.13.53-.47.63-1.3,1.13-1.72a1.16,1.16,0,0,1-.14.89c.27.36.47.3.73,0a1.28,1.28,0,0,0,.08.67c.2-.06.14-.89.41-.53a6.63,6.63,0,0,1-.2,1c.24-.23.48-.68.73-.91.07.43-.15.65-.24.93a1.39,1.39,0,0,0,.81-1.07l-.18-.24c.1,0,.05.58,0,.71-.24.53-.35-.24-.36-.48l.18-.16c-.18-1.44-.71.23-1.07.15l.15-1-.37.87c-.08-.27-.13-.86,0-1-.26-.52-.23.37-.45-.2a.23.23,0,0,1,0-.18l-.25.31c0-.22,0-.74.11-.59-.45-.6-.72.79-.89,0l0-.06c-.62.35-.06.77-.53,1.67l-.31-1.9-.06.77c-.06,0-.19-.09-.17-.39-.24.53,0,.33-.1.83-.31-.7-.85.33-.92-.9-.11.58.3.45,0,.86-.09-1.32-.38.23-.66-.38.09-.68.35-.32.07-.93-.17,1.15-.55-.25-.79,0,0,.92-.52.38-.92.69,0-.31-.75-.5-1.12-.83v-.15c-.07.93-.45.75-.73.94a1.78,1.78,0,0,1,.21-1h-.26a.75.75,0,0,1-.31.56l.07-.69c-.35,0-.7.81-1.15.35,0,.65.36,1.8-.12,2.23a2.5,2.5,0,0,1,.09-1.09s-.15.29-.23.14l.19-.59c-.2-.26-.11.49-.27.44,0-.5-.12-.36-.1-.75,0,0,.14.21.21,0a1.11,1.11,0,0,1-.48-.76c0,.28,0,.67-.14.73-.35,0-.12-.6-.32-.85-.08.35-.31,0-.31.73-.1,0-.12-.35-.16-.55-.18.33-.84.09-.64.88l0,.05,0,0h0c-.59.74-1.23-.42-1.82-.1v-.25c-.35.28-.78.17-1,.7-.1,0-.24-.45-.2-.75-.27.19-.3.47-.69.06.27-.43-.09-.38.28-.32-.35-.21-.43-.61-.8.07.13-.64-.26-.8-.43-.61l.24.46a.62.62,0,0,1-.51,0l.09-.84c-.71-1-1.29,1.74-1.83,0-.19.59.39.41.22,1.1-.33-.11-.67-1.32-.77-1.32-.45-.46-.42,1.22-.89.91.06.3.12,1.1-.23,1.38-.33-.11-.4-1.25-.2-1.49.08,0,.12.07.11.17a.44.44,0,0,0,.12-.56l0,.3c-.16-.31-.61-.27-.51-.76a.4.4,0,0,0,.08.65c-.42-.43-.66,0-1.09-.3.07.16.13.52.06.51-.64-.37-.28.57-.71.7-.24-.46.09-1.09-.35-.71-.26-.31-.06-.79,0-1-.39.58-.74-.38-1-.48l.21-.24a.36.36,0,0,1-.33.14l.12.6c-.12-.1-.23-.11-.22-.36-.13.39.1,1-.15,1.53-.16-.3-.5.33-.55-.47.51.27-.06-.8.38-.93-.08.09-.19.09-.31,0a.27.27,0,0,1,.05-.21c-.49-.71-.23.9-.73.88.06-.45-.12-.85-.2-.75.2,0,.1.75-.09,1.09-.33-.35-.35.26-.52.22l.19.16c-.07.45-.23.39-.46.53,0-.35.21-.24.13-.39-.25.79-.57-.81-.92-.28-.16-.3,0-.84-.16-1-.39.58-.43-.61-.84-.13.12.6.14.45-.15,1l.68-.42-.44.87c.21,0,.43-.38.56-.28-.21.49-.19.34-.09.84-.28-.9-.56.53-.88-.08v-1.49c-.49-.66-.87.76-1.5.39l.2.26c-.09.59-.39.08-.6.32a2.38,2.38,0,0,0-.2-1c0,.37-.46,0-.52,1l-.28-.66c-.51-.27-.58,1.42-1.08,1.25.15-.54-.08-.89.25-1.28-.16,0-.31-.1-.31.25-.1-.31-.46.67-.61.2-.07.22-.09.74-.28.7a.89.89,0,0,1,0-.25c0,.25-.29.33-.13.88-.51-1.55-1.41.11-1.86-1.22a4,4,0,0,1-1.12.36c0-.15,0-.25.06-.2-.45-.46-.28,1.43-.79.91-.26-.8.27-.43.11-.74-.07-1.64-.62.22-1-.73l.08-.1c-.26-.56-.64.62-1.07.5a1,1,0,0,0,0-.25,2.31,2.31,0,0,1-1.26,1.34c.13-.64.19-.34.11-1-.19.09.05,1-.32,1.23a3.59,3.59,0,0,1-.42-1.35l.35,0c-.18-.9-.45,0-.64-.13l0-.39c-.53.13-.54,1.12-1.12,1l.06.3c-.31,1-.26-.55-.58.18l-.09-1a5.43,5.43,0,0,1-1.1,1.15,5.33,5.33,0,0,1,.91-1.55.77.77,0,0,0-.8.56c.08-.1.19-.34.27-.19-.25.78-.58,1.17-1,1.15.07-1.93-1.07-.49-1.36-2-.72.71-1.44-.3-2.28-.19.3,1.5-.25,0-.19,1.58-.2.1-.27.07-.29,0l-.59-.92c-.14-.45.19-.34.17-.69-.43-.12-.18-.65-.47-1.06.06.55-.15.79-.39.58l.35.71c-.6.82-.52-1.29-1.12-.48l.19-.48c-.31.29-1.15,0-1.45,1.23-.06-.18-.13-.6,0-.71-.74-.19-1.65,1.32-2.23.55l.06-.38c-.14.11-.24.71-.41.33,0-.16.06-.38,0-.4-.07.13-.37.66-.55.44l.16-.42c-.72-.49-1.11,1-1.72,1.29a1.7,1.7,0,0,0-.85-1.65v-.16c-.84-.14-1.43.92-2.21,1.35-.48-1.2-1.64-.5-2.42-1.18a1.26,1.26,0,0,1-.16,1c-.18-.22-.51.77-.48-.25l.07,0c-.14-1-.51-.73-.81-.76l0,1.33c-.77-1.94-2,.71-2.43-1-.19.33-.41.33-.6.66v-.71a1.9,1.9,0,0,0-1.4-.1l.13-.51c-.36,0-.45,2.06-.78,2.1l-.1-1.06c-.62,0-1.26-.92-1.87,0,0-.16,0-.46.13-.51-.29,0-1.14-.72-1,.74,0-1-.64-.09-1,.33l.05-.7c-.28.9-.29,1.14-.69,1.39-.09-.09-.08-.56,0-.38-.31-.37-.24.66-.63.29l.14-.45c-.32-.05-.3.19-.48.71-.2.28-.61-.18-.66-.81,0,.39-.22.9-.41.72a.8.8,0,0,1,.08-.46c-.54-.48-.8.82-1.17.13a1.19,1.19,0,0,0-.06-.42c.43,0,.77.06.74.11,0-.65-.35-.76-.07-1.65-.28.49-.75,1.55-1.09,1.24a1.54,1.54,0,0,1,0-.22l0-.07c-.08-.06-.15,0-.21.1-.11-.11-.18-.19-.28-.19,0-.54-.4-.29-.57-.31,0,.71-.21.59,0,1.18,0-.05,0-.08.15-.11s.06,0,.07-.07v.06l.43,0c-.14.36-.28.66-.47.27-.09.46-.19.92-.24,1.14-.24-1-.69-1.52-.76-2.13-.53.4-1.24.26-1.57,1.59-.15.17-.17-.38-.23-.59s.19-.11.24-.3c-.3.34-.89.13-1,1.06-.38-.42.21-.86-.31-.7l.07-.28c-1-1.49-1.66,2.37-2.79.47a.59.59,0,0,1,.13.33c-1.29-.84-2.66.79-3.94-.54-.36-.27-.4.32-.62.78l-.08-.76-.38.88c-.54.64-.93-1.87-1.61-.65l.09.51c-.24-.1-.77.3-.73-.29,0,.09-.08.53-.18.27v-.4l-.6.68c-.46-.29.07-1.58-.6-1.66a2.29,2.29,0,0,0-.62,1.43c.1,0,.26.25.27.65l-.23.21c0,1.17-.22,2.37.35,3.19l.39-.72.13.57-.33,0c.19.54.31.06.44-.26a1.46,1.46,0,0,0,.17.63l.39-1.12c0,.46-.17.91.09,1.16.18-.52-.17-1,.13-1.37.19.53.13,1,.35.51a.93.93,0,0,1-.1.63c.2-.36.52-.15.62-.78.2.66.66-.17.65.94.06-.27.35-.87.53-.92-.33,1.33.68.08.59,1.5.24-1.2.88-.53,1.32-1.19,0,.09-.07.29-.11.23.24.1.31.46.47.69,0-1,.41-1.21.62-1.82.3,1-.18,1.16-.09,2.07,0-.8.52-.8.42-1.47a2.59,2.59,0,0,1,.31,1.1c0-1.23.21-.21.4-1,.33.61.09,1.16.45.78A.92.92,0,0,1,76.21,336Zm8.64-2.13h0l-.18,0Zm.73,0a1,1,0,0,0-.31,0c0-.24,0-.5.08-.48C85.29,333.5,85.47,333.64,85.57,333.85ZM84,328.94c.11-.1.15,0,.17.18a.71.71,0,0,0-.2.08v.09A2.64,2.64,0,0,1,84,328.94Z"/><path class="cls-8" d="M83.83,329.87s0,0,0,.05l.07.16,0-.22Z"/><path class="cls-8" d="M149.63,330.92l0,0a.37.37,0,0,1,0,.1S149.64,330.94,149.63,330.92Z"/><polygon class="cls-8" points="95.6 335.2 95.6 335.02 95.53 335.18 95.6 335.2"/><path class="cls-8" d="M153.63,333.35a.51.51,0,0,0,.05.18A.67.67,0,0,0,153.63,333.35Z"/><path class="cls-8" d="M155.36,333.51l.24.25A1,1,0,0,0,155.36,333.51Z"/><path class="cls-8" d="M156.69,333.86c0-.12,0-.22,0-.3h0Z"/><path class="cls-8" d="M135.57,334.69l-.05,0C135.4,334.86,135.48,334.8,135.57,334.69Z"/><path class="cls-8" d="M141.86,333a1.84,1.84,0,0,1-.2.33C141.77,333.42,141.85,333.44,141.86,333Z"/><path class="cls-8" d="M128.56,335.54h0Z"/><path class="cls-8" d="M141.36,333.36c.11.14.21.11.29,0C141.56,333.32,141.46,333.25,141.36,333.36Z"/><path class="cls-8" d="M162.44,334.18l.06,0a.61.61,0,0,1,0-.11Z"/><path class="cls-8" d="M162.51,334.09l.07-.08S162.52,334,162.51,334.09Z"/><path class="cls-8" d="M162.73,333.83l-.15.18C162.64,334,162.7,334,162.73,333.83Z"/><path class="cls-8" d="M160.68,333.85l0,.26A1.51,1.51,0,0,0,160.68,333.85Z"/><path class="cls-8" d="M160.15,333.93c.13.06.32.55.5.39l0-.2C160.58,334.49,160.27,333.49,160.15,333.93Z"/><path class="cls-8" d="M157.92,330.75l.45.21c-.08-.27-.18-.64,0-.71C157.83,329.43,158.51,330.86,157.92,330.75Z"/><path class="cls-8" d="M156.53,330.35c.24-.13,0-.4,0-.55C156.39,330.05,156.35,330.11,156.53,330.35Z"/><path class="cls-8" d="M146.5,330.35l0-.64C146.34,329.8,146.52,330,146.5,330.35Z"/><polygon class="cls-8" points="144.59 333.68 144.76 334.08 144.85 333.49 144.59 333.68"/><polygon class="cls-8" points="143.45 329.09 143.53 329 143.22 329.23 143.45 329.09"/><path class="cls-8" d="M126.61,329.32l.06.79C126.79,330,126.81,329.08,126.61,329.32Z"/><path class="cls-8" d="M119.34,330.13c-.08-.4-.28-.65-.41-.26C119.09,329.92,119.25,330.23,119.34,330.13Z"/><polygon class="cls-8" points="97.53 328.84 97.67 328.57 97.4 328.79 97.53 328.84"/></g></svg>