<?xml version="1.0" encoding="UTF-8"?>
<svg xmlns="http://www.w3.org/2000/svg" xmlns:xlink="http://www.w3.org/1999/xlink" width="519pt" height="157pt" viewBox="0 0 519 157" version="1.1">
<g id="surface1">
<path style="fill:none;stroke-width:12;stroke-linecap:round;stroke-linejoin:miter;stroke:rgb(21.914673%,49.446106%,71.574402%);stroke-opacity:1;stroke-miterlimit:10;" d="M 0.00095625 -0.00096875 C -0.225606 -20.0205 -16.635763 -36.063469 -36.651388 -35.836906 C -56.6592 -35.610344 -72.709981 -19.196281 -72.483419 0.819344 C -72.256856 20.834969 -55.838888 36.881844 -35.831075 36.655281 C -15.81545 36.428719 0.227519 20.014656 0.00095625 -0.00096875 Z M 0.00095625 -0.00096875 " transform="matrix(1,0,0,-1,423.7842,44.1045)"/>
<path style="fill:none;stroke-width:12;stroke-linecap:butt;stroke-linejoin:miter;stroke:rgb(96.881104%,92.845154%,9.701538%);stroke-opacity:1;stroke-miterlimit:10;" d="M 0.0014375 0.00195 C 20.017063 0.00195 36.243625 -17.474612 36.243625 -39.0293 " transform="matrix(1,0,0,-1,44.7095,6.4082)"/>
<path style="fill:none;stroke-width:12;stroke-linecap:round;stroke-linejoin:miter;stroke:rgb(21.914673%,49.446106%,71.574402%);stroke-opacity:1;stroke-miterlimit:10;" d="M 0.000525 -0.00004375 C -20.323694 -0.00004375 -36.819787 16.480425 -36.819787 36.824175 C -36.819787 56.74605 -20.995569 72.972613 -1.23385 73.628863 " transform="matrix(1,0,0,-1,43.7026,79.9648)"/>
<path style="fill:none;stroke-width:12;stroke-linecap:butt;stroke-linejoin:miter;stroke:rgb(21.914673%,49.446106%,71.574402%);stroke-opacity:1;stroke-miterlimit:10;" d="M 0.0005125 -0.001925 C -6.565894 -6.099581 -15.370581 -9.826144 -25.054175 -9.826144 " transform="matrix(1,0,0,-1,68.7573,70.1387)"/>
<path style="fill:none;stroke-width:12;stroke-linecap:butt;stroke-linejoin:miter;stroke:rgb(21.914673%,49.446106%,71.574402%);stroke-opacity:1;stroke-miterlimit:10;" d="M -0.001475 0.0000125 C -0.271006 -10.656238 -5.032725 -20.148425 -12.458506 -26.707019 " transform="matrix(1,0,0,-1,81.0171,43.6172)"/>
<path style="fill:none;stroke-width:12;stroke-linecap:butt;stroke-linejoin:miter;stroke:rgb(21.914673%,49.446106%,71.574402%);stroke-opacity:1;stroke-miterlimit:10;" d="M -0.00145 -0.00194375 C 0.412612 0.0175875 0.826675 0.0214937 1.232925 0.0214937 C 10.43605 0.0214937 18.846206 -3.345694 25.299331 -8.919913 " transform="matrix(1,0,0,-1,42.4702,6.3379)"/>
<path style="fill:none;stroke-width:12;stroke-linecap:butt;stroke-linejoin:miter;stroke:rgb(21.914673%,49.446106%,71.574402%);stroke-opacity:1;stroke-miterlimit:10;" d="M -0.001425 -0.0000375 L -45.8608 -0.0000375 " transform="matrix(1,0,0,-1,82.5483,49.7734)"/>
<path style="fill:none;stroke-width:12;stroke-linecap:butt;stroke-linejoin:miter;stroke:rgb(21.914673%,49.446106%,71.574402%);stroke-opacity:1;stroke-miterlimit:10;" d="M -0.00098125 0.00003125 C 20.014644 0.00003125 36.245113 -17.472625 36.245113 -39.027312 " transform="matrix(1,0,0,-1,132.6377,6.543)"/>
<path style="fill:none;stroke-width:12;stroke-linecap:butt;stroke-linejoin:miter;stroke:rgb(21.914673%,49.446106%,71.574402%);stroke-opacity:1;stroke-miterlimit:10;" d="M 0.00145 0.000025 C -20.322769 0.000025 -36.818862 16.4844 -36.818862 36.824244 C -36.818862 56.746119 -20.99855 72.972681 -1.236831 73.628931 " transform="matrix(1,0,0,-1,134.2173,80.1719)"/>
<path style="fill:none;stroke-width:12;stroke-linecap:butt;stroke-linejoin:miter;stroke:rgb(21.914673%,49.446106%,71.574402%);stroke-opacity:1;stroke-miterlimit:10;" d="M -0.00045 -0.0000375 L -51.152794 -0.0000375 " transform="matrix(1,0,0,-1,174.5942,47.7734)"/>
<path style="fill:none;stroke-width:12;stroke-linecap:butt;stroke-linejoin:miter;stroke:rgb(21.914673%,49.446106%,71.574402%);stroke-opacity:1;stroke-miterlimit:10;" d="M 0.00045625 0.00005 C -6.569856 -6.101513 -15.374544 -9.828075 -25.054231 -9.828075 " transform="matrix(1,0,0,-1,158.1597,70.3438)"/>
<path style="fill:none;stroke-width:12;stroke-linecap:butt;stroke-linejoin:miter;stroke:rgb(21.914673%,49.446106%,71.574402%);stroke-opacity:1;stroke-miterlimit:10;" d="M 0.00148125 -0.00190625 L 0.00148125 -146.431594 " transform="matrix(1,0,0,-1,351.2993,9.3145)"/>
<path style="fill:none;stroke-width:12;stroke-linecap:butt;stroke-linejoin:miter;stroke:rgb(21.914673%,49.446106%,71.574402%);stroke-opacity:1;stroke-miterlimit:10;" d="M 0.0009875 0.0000375 C 0.0009875 -20.320275 -16.487294 -36.816369 -36.827137 -36.816369 C -56.749012 -36.816369 -72.971669 -20.996056 -73.627919 -1.230431 " transform="matrix(1,0,0,-1,512.4912,46.0391)"/>
<path style="fill:none;stroke-width:12;stroke-linecap:butt;stroke-linejoin:miter;stroke:rgb(21.914673%,49.446106%,71.574402%);stroke-opacity:1;stroke-miterlimit:10;" d="M 0.0014625 0.00099375 L -35.041506 -98.694319 " transform="matrix(1,0,0,-1,511.2251,55.6299)"/>
<path style="fill:none;stroke-width:12;stroke-linecap:butt;stroke-linejoin:miter;stroke:rgb(21.914673%,49.446106%,71.574402%);stroke-opacity:1;stroke-miterlimit:10;" d="M -0.0015 -0.00093125 C -0.0015 20.319381 -16.485875 36.815475 -36.825719 36.815475 C -56.747594 36.815475 -72.97025 20.995162 -73.6265 1.233444 " transform="matrix(1,0,0,-1,333.8765,44.3311)"/>
<path style="fill:none;stroke-width:12;stroke-linecap:butt;stroke-linejoin:miter;stroke:rgb(21.914673%,49.446106%,71.574402%);stroke-opacity:1;stroke-miterlimit:10;" d="M 0.0005 -0.0019125 C 0.0005 20.3184 -16.487781 36.814494 -36.827625 36.814494 C -56.7495 36.814494 -72.972156 20.994181 -73.632313 1.232462 " transform="matrix(1,0,0,-1,260.2495,43.1309)"/>
<path style="fill:none;stroke-width:12;stroke-linecap:butt;stroke-linejoin:miter;stroke:rgb(21.914673%,49.446106%,71.574402%);stroke-opacity:1;stroke-miterlimit:10;" d="M -0.0015125 0.00093125 L -0.0015125 -45.917037 " transform="matrix(1,0,0,-1,186.6187,40.1064)"/>
<path style="fill:none;stroke-width:12;stroke-linecap:butt;stroke-linejoin:miter;stroke:rgb(21.914673%,49.446106%,71.574402%);stroke-opacity:1;stroke-miterlimit:10;" d="M -0.00051875 -0.00190625 L -0.00051875 -38.876906 " transform="matrix(1,0,0,-1,438.8638,9.3145)"/>
<path style="fill:none;stroke-width:12;stroke-linecap:butt;stroke-linejoin:miter;stroke:rgb(21.914673%,49.446106%,71.574402%);stroke-opacity:1;stroke-miterlimit:10;" d="M 0.0009875 -0.00190625 L 0.0009875 -38.349562 " transform="matrix(1,0,0,-1,512.4912,9.3145)"/>
<path style=" stroke:none;fill-rule:nonzero;fill:rgb(96.881104%,92.845154%,9.701538%);fill-opacity:1;" d="M 86.328125 43.753906 L 74.992188 43.753906 L 74.992188 42.722656 L 86.328125 42.722656 Z M 86.328125 43.753906 "/>
<path style=" stroke:none;fill-rule:nonzero;fill:rgb(21.914673%,49.446106%,71.574402%);fill-opacity:1;" d="M 174.84375 45.53125 L 174.59375 53.878906 L 174.171875 45.53125 Z M 174.84375 45.53125 "/>
<path style="fill:none;stroke-width:12;stroke-linecap:butt;stroke-linejoin:miter;stroke:rgb(21.914673%,49.446106%,71.574402%);stroke-opacity:1;stroke-miterlimit:10;" d="M 0.0005 0.00094375 L 0.0005 -42.924837 " transform="matrix(1,0,0,-1,260.2495,43.0986)"/>
<path style="fill:none;stroke-width:12;stroke-linecap:butt;stroke-linejoin:miter;stroke:rgb(21.914673%,49.446106%,71.574402%);stroke-opacity:1;stroke-miterlimit:10;" d="M -0.0015 0.00094375 L -0.0015 -42.924837 " transform="matrix(1,0,0,-1,333.8765,43.0986)"/>
</g>
</svg>
